<svg width="814" height="768" viewBox="0 0 814 768" fill="none" xmlns="http://www.w3.org/2000/svg">
<path d="M231.4 413.7C197 439.4 163.2 466.1 129.8 493.3C109.7 509.7 89.9 526.4 70.3 543.3C108.2 495.9 147.7 449.8 188.3 404.7C194.2 398.2 200 391.8 206 385.4L231.4 413.7Z" fill="#F5FF00"/>
<path d="M343.7 560.4C301.4 589.7 259.6 620.4 218.8 651.9C205.1 662.4 191.6 673.1 178.2 683.9C202.2 659.1 226.7 634.7 251.6 610.8C276.6 586.8 301.8 563.2 327.7 540C327.7 539.9 343.7 560.4 343.7 560.4Z" fill="#F5FF00"/>
<path d="M264.2 504C177.1 568.6 89.7 633.2 5 701.1C24 681.6 43.3 662.6 62.7 643.6C121.1 586.6 180.3 530.6 239.9 474.8C240 474.8 264.2 504 264.2 504Z" fill="#F5FF00"/>
<path d="M199.8 261.2C138.5 334.2 71.2 401.8 0 465.1C29.1 427.2 61.6 392.3 94.9 358.2C128.4 324.4 162.8 291.4 199.8 261.2Z" fill="#F5FF00"/>
<path d="M470 609.3C390.1 661.1 310.4 713.1 232 767.2C250.5 752.2 269.1 737.3 287.8 722.5C343.9 678.2 400.5 634.6 457.4 591.2C457.4 591.3 470 609.3 470 609.3Z" fill="#F5FF00"/>
<path d="M755 216.4C761.5 205.6 762.8 194.4 764.8 183.5C765.8 178.2 761.2 178.3 758.3 176.9C741.9 168.6 733.6 154.7 730.9 137C730.7 135.5 730.5 133.9 732.2 132C746 138.3 756.3 148.8 763.3 162.2C771.9 178.8 780 195.8 787.7 212.9C795.5 230.3 789.3 240.8 770.1 243.1C756.4 244.8 742.6 244.5 729 242.7C703.7 239.5 679 243.4 654.2 246.6C636.8 248.9 619.5 252.6 602.2 255.8C577.8 260.3 554.8 268.9 532.3 279.1C518.4 285.4 504.5 291.6 489.6 295.4C484.1 296.8 479.8 300.2 475.5 303.6C454.3 320.4 433.3 337.3 412 354C400.3 363.2 388.4 372.1 375.2 379.2C366.2 384.1 365.7 383.9 359.8 376.1C346.4 358.4 337.1 338.7 332.4 317C328.5 298.7 332 282 344.8 267.8C349 263.2 353.3 258.5 358.3 254.7C404.5 219.7 451.5 185.9 504.6 161.8C545.7 143.1 588.3 129 633 122C658.7 118 684.4 116.8 710 123.1C716.1 124.6 719.1 127.4 720.5 133.6C724.3 150 731.5 165.3 736.9 181.3C738.3 185.6 739.7 188.2 745.1 185.4C748.3 183.7 752.1 183.3 755.4 181.2C757.3 180 760.2 181.8 760.8 184.3C761.3 186.7 758.8 188 757.1 187.6C752.3 186.3 750.4 190.7 747.1 192.1C745.7 192.7 744.2 194.4 745.2 195.8C749.7 201.7 749.4 209.8 755 216.4Z" fill="#F5FF00"/>
<path d="M213 214.3C217.2 214.4 217.9 211 220 209.6C229.4 203.2 238.9 198.9 250.5 205C254.9 207.3 260 208.8 265 209.6C271 210.5 273 213.2 274 219.2C285.1 280.7 307 338 342.1 390C355.7 410.2 370.2 429.6 388.2 446.1C403.1 459.7 419.3 471.1 439.3 476C442.7 476.8 444.7 478.2 445.4 481.9C447.7 494.8 454.2 506.1 459.4 517.9C462.8 525.8 465.8 533.8 466.5 542.6C466.9 548.4 465.4 551.2 459.1 551.6C448.7 552.3 438.9 550.6 429.1 547.4C414.2 542.4 400.3 535.3 386.9 527.1C356.7 508.6 329.8 486.1 304.5 461.3C285.8 442.9 275.8 419.5 264.5 396.8C262.3 392.4 262.3 387.5 257.9 383.5C254.4 380.4 253.1 374.7 250.9 370.1C234.3 335.6 218.8 300.6 210.6 262.7C210.1 263.3 209.7 263.6 209.6 264C207.7 284.3 197.3 302.3 194.2 322.3C194 323.4 193.5 324.5 193.4 325.6C193.3 327.1 193 329.1 194.7 329.6C196.7 330.2 199 329 199.4 327.1C200.3 323.3 200.3 319.4 201 315.5C201.5 312.5 202.5 309.6 203.8 305C206.2 341.4 221 371.5 237.3 401.1C242.4 410.3 247.6 419.7 254.3 427.8C265.9 441.9 270.5 458.7 275.7 475.5C277.4 480.8 277.8 486.1 276.8 492.3C267.9 489.5 264.3 482 259.2 474.2C258.3 480 260.9 483.2 262.4 486.6C267.8 498.4 275.9 508.6 283.1 519.3C285.5 522.8 287.9 524.1 291.9 522.2C294.3 521 297 520.2 299.4 518.8C311.1 512.1 323.6 515.7 335.9 516.1C337.2 516.1 338.5 517.7 339.8 518.6C345.2 522.7 347.9 529.3 356.5 530.6C363.7 531.7 370.1 538 377.1 541.4C383.7 544.7 390.6 547.7 397.6 550.1C404.6 552.5 411.9 554 419.1 555.9C434.2 559.9 449.6 563 462.9 571.9C476.6 581.1 480.4 593 475.8 608.6C474.1 614.4 471.6 615.7 465.8 615.2C444.6 613.1 424.4 607.1 404.3 600.6C361.6 586.7 321.8 566.9 286.7 538.6C268.9 524.3 253.5 507.7 240.7 488.7C224.7 465 210.3 440.4 198 414.6C192 402 189.9 389.5 193 376C193.6 373.3 194.1 370.6 194.2 367.9C194.3 362.9 192.6 358.8 187.5 356.9C183.8 360 186.9 362.6 187.8 365.3C188.3 366.6 187.3 367.3 186.2 367.7C184.7 368.2 184 367.3 183.9 366.1C183.1 360.3 182.3 354.5 181.8 348.7C179.2 313.1 177.3 277.6 181.4 242C182.6 231.5 184.4 221.1 188.2 211.1C190 206.3 192.2 201.7 196.3 198.4C203.8 192.2 210.6 194.8 212.1 204.2C212.5 207.6 212.7 211 213 214.3ZM210.8 253.2C211.5 241.8 212.1 232.7 212.7 223.7C208.3 232.6 206.9 241.6 210.8 253.2ZM388.6 570.9C391.1 574.1 394.5 575.1 397.6 576.5C399.8 577.5 402.3 577.7 403.1 574.6C403.7 572.5 402.4 570.6 400.4 570.2C396.8 569.4 393.1 567.2 388.6 570.9ZM245.5 317.8C244.8 321.6 245.1 324.9 249.2 326.5C249.8 326.7 251.7 325.6 251.8 324.9C252.1 320.7 249.4 319 245.5 317.8ZM281.8 325.1C278.9 325.7 278.9 328.3 278.5 330.4C278.1 332.6 279.8 334.1 281.9 333.9C284.2 333.7 284.7 331.5 284.7 329.5C284.8 327.5 284.1 325.7 281.8 325.1ZM197.7 340.8C197.3 339.5 196.9 337.9 195 337.7C192.5 337.5 191.7 339.2 191.5 341.2C191.3 343.3 193.1 343.5 194.6 343.6C196.5 343.7 197.4 342.6 197.7 340.8ZM259 311.2C258.4 311.6 256.6 312 256.6 312.6C256.3 315.7 257.7 317.8 260.9 318.5C262.2 318.8 263.6 318.1 263.7 317.1C264.1 314.1 262.8 311.8 259 311.2Z" fill="#F5FF00"/>
<path d="M780.6 266.5C780.5 267.3 780.4 268.1 780.2 268.8C774.7 288.7 770.4 309.1 762 328.1C760.1 332.4 757.8 336.5 755.4 340.5C750.3 349.3 742.8 353.2 732.3 354C690.2 357.1 648.2 361.7 607.5 374C602.5 375.5 598.5 375.9 595.3 370.8C594 368.7 591.8 367.5 589.3 368.9C587.1 370.1 585.5 372.3 586.7 374.7C589.4 380 585.6 380.6 582.3 381.7C547.3 392.7 515.2 409.2 485.1 430.1C476.8 435.9 467.9 440.8 458.1 444C447.6 447.4 437.3 447.1 427.5 441.5C411.5 432.5 399.8 418.7 388.1 405.1C385.4 401.9 386 398.7 387.7 395.3C390.3 389.9 394.4 385.7 398.7 381.7C407.5 373.3 417.3 366.1 427.3 359.3C458.1 338.5 490.2 319.7 524 304.3C557.2 289.2 592.4 279.8 627.9 272.1C675.2 261.8 723 257.9 771.3 262.4C773.2 262.6 775.2 262.5 777.1 262.9C780.1 263.4 780.5 264 780.6 266.5ZM699.7 329.7C701.5 326.4 700.8 323.3 701.1 320.2C701.3 317.6 700.5 315.6 697.7 315C691.6 313.8 685.4 312.5 679.5 315.9C677.5 317.1 675.3 318.5 675.6 321.1C675.8 323.2 678.1 324 679.7 324.8C686.1 327.7 693 328.3 699.7 329.7ZM623.7 320.6C624.2 318 624.5 316.1 625 314.2C625.5 312.3 626.2 310.5 626.8 308.6C627.6 306 628.8 303 626.3 300.9C623.7 298.7 620.3 299.5 617.4 300.5C611.4 302.7 609.7 308.5 613.5 313.6C615.9 316.8 618.4 319.9 623.7 320.6ZM677.1 278.1C676.8 269 673.9 266.6 665.3 269.3C661.2 270.6 660.2 273.8 662.9 277.3C665.7 280.9 670.2 282.7 672.8 286.8C674.1 288.9 677.1 287.9 677.5 284.8C677.8 283 677.3 281 677.1 278.1Z" fill="#F5FF00"/>
<path d="M725.5 97.4C719.4 95.2 719.1 95.1 716.9 101.2C715.3 105.5 712.5 106.8 708.3 107.7C691.8 111.1 675.2 111.8 658.4 111.9C636.9 112 615.4 111.2 593.9 113.4C573.8 115.4 555.2 122.6 536.1 128.1C478.1 144.5 426.3 172.7 378.6 209.1C366.1 218.7 355.9 230.6 344.9 241.7C336.9 249.8 329.2 258.1 319.6 264.4C313.3 268.6 312.1 268 310.2 260.9C307.5 250.7 304.8 240.5 302.4 230.2C298.4 213.2 301.7 197.7 312.6 183.8C322.8 170.7 334.8 159.5 348.2 149.9C362.2 139.9 376.6 130.5 390.9 120.9C404.9 111.5 418.7 102 431.1 90.5C433.4 88.4 435.7 86.6 439 85.8C467.1 78.6 493.6 67.1 520.6 56.8C540.7 49.2 560.9 42 582.2 38.4C590.1 37 596.8 38.4 603.3 42.6C608.8 46.2 614.2 50.1 620.9 50.9C623.7 48.8 621.5 47.1 620.8 45.8C618.4 41.6 621.8 39 624.2 39.5C633.1 41.3 644.1 38 649.6 49.6C651.7 54 656.3 56.9 661.4 58.9C663.9 55 660 52.9 660.1 49.6C660.3 49.3 661 49.1 661.8 49.6C665.1 51.6 668.3 53.9 671.8 55.7C677.8 58.8 681.7 62.5 679.7 70.3C678.3 75.8 680.8 81.1 683.7 85.9C688.4 93.6 694.7 99.7 703.3 107.9C702.3 99.8 706.4 94.6 704.8 89.4C703.3 84.4 699.2 80.3 696 75.5C704.8 76.4 716.9 85.6 725.5 97.4ZM380.6 161.4C380.7 161.1 381 160.6 380.9 160.4C378.4 156.7 376.3 152.5 373 149.5C371.4 148 367.7 149 365.8 151.2C364.2 153 365.7 154.8 366.6 156.4C368.9 160.3 372.4 162.4 376.7 163.3C378.4 163.6 379.8 163.1 380.6 161.4Z" fill="#F5FF00"/>
<path d="M524.2 616.9C504.9 617.3 497.5 611.4 493.3 595.1C491.1 586.7 490.9 578 490.1 569.5C488.8 556.5 485.3 544.2 480.6 532.2C474.8 517.3 468.8 502.5 464.6 486.9C460.9 472.9 464.5 462.7 476.2 454.4C493.2 442.2 511.7 433.1 531.8 427.3C535.5 426.2 539.5 425.8 543.4 425.6C552.5 425.1 555.2 427.1 557.5 435.9C567.7 475.6 579.1 515.1 584.3 555.9C585.4 564.3 586.2 572.8 586.6 581.3C587.3 595.7 581 604.6 566.7 609.4C561.2 611.3 555.4 612.5 549.6 613.4C540.3 615 531 616 524.2 616.9Z" fill="#F5FF00"/>
<path d="M630.7 422.8C637.5 416.1 637.6 416.1 632.8 410.7C628.2 405.4 623.4 400.3 617.5 393.7C630.2 390.2 641.9 388.7 653.8 389.4C657.5 389.6 658.2 391.9 658.2 395C658.2 411.6 661.2 427.7 665.3 443.6C666.9 449.8 665.7 453.9 660 457C657 458.6 653.8 460.2 651.7 463.2C661 462 661 462 667.3 454.9C674.8 481.5 680.2 508.2 682 535.7C682.9 550 677.8 560.9 665.7 568.4C654.4 575.4 643 582.2 631.5 589C627.1 591.6 622.3 593.3 617.3 594.4C612.2 595.5 609.5 594.4 608.3 588.6C598.3 540.7 582.2 494.4 572.5 446.5C570.6 436.9 569.4 427.2 567.6 417.6C566.9 413.9 568 411.8 571.3 410.1C580.7 405.3 590.5 401.3 600.5 398C604.1 396.8 606.3 397.7 608.7 400.2C616.1 407.8 623.5 415.3 630.7 422.8ZM623.7 507.6C630.5 497.4 629.4 468.3 622.3 455.1C629.6 471.9 624.9 489.5 623.7 507.6ZM659.5 438.8C657.4 435 653.3 433.5 649.7 431.6C647 430.1 643.7 429.7 641 432C639.8 433 639.5 435.1 640.9 436.1C645 438.9 648.8 442.2 653.7 443.5C657.2 444.3 658.5 441.9 659.5 438.8ZM602.6 407.3C594.5 414.9 594.5 414.9 600.3 422C607.5 415.9 607.5 415.9 602.6 407.3ZM638.7 448.9C634.4 444.3 633.1 439.3 632.6 433.8C632.5 432.1 630.9 431 629.3 431.7C627.6 432.4 625.4 434 627 435.9C629.8 439 629.4 443 630.9 446.4C631.8 448.5 633.7 451.1 638.7 448.9ZM603.3 452C609.5 451.6 613.7 453.7 618.1 448.2C613.1 450.4 608.8 447.7 603.3 452Z" fill="#F5FF00"/>
<path d="M437.8 46.1C440.1 66 442.9 60.6 426.2 72.5C413.8 81.3 401 89.7 388.2 98C382 102 375.2 105.2 368.8 108.9C356.2 116.1 344.2 116.5 331.4 108.5C319.5 101.1 306.9 94.6 295.4 86.5C292.3 84.3 288.6 82.6 286.1 77.6C326.2 53.6 367.2 33.2 415.7 31C415.8 27 412.4 23.8 411.5 19.8C410.7 16.3 411.3 14.2 415.2 12.7C430.6 6.59998 446.4 2.79997 462.9 1.39997C465.9 1.09997 468.8 0.799975 471.6 3.39997C474.3 5.89997 477.9 6.69998 479.9 1.99998C480 1.69998 480.4 1.49998 480.8 1.29998C490.8 -2.50002 518.8 5.49999 525.5 14.1C531.5 21.8 530.6 26.1 521.8 29.9C496.1 41.1 469.7 49.1 441.1 45.6C440.1 45.6 438.9 46 437.8 46.1ZM436.1 44.2C427.8 35 427.8 35 419.9 35.1C424 39.2 428.2 42.3 436.1 44.2Z" fill="#F5FF00"/>
<path d="M727 373.2C741.1 372.9 752 379.1 758.9 392.1C769.9 413 773.6 434.7 765.6 457.7C757.1 482.1 744.3 503.7 725.5 521.6C719.8 527 713.4 531.5 706.3 534.9C701.4 537.2 699.4 536.2 698.3 530.9C694.8 513.3 690.6 495.8 687.3 478.1C682.3 450.8 677.7 423.4 673.2 396.1C670.9 382.4 671.1 382.3 684.9 380.2C698.7 378.1 712.2 373.5 727 373.2Z" fill="#F5FF00"/>
<path d="M276.5 190.2C254.3 188.5 234 181.1 214.9 169.8C209.8 166.8 208.5 163.2 211 157.1C220 134.6 234 116.3 254.7 103.7C283.5 86.2 312.2 94.6 327.6 124.4C329.4 127.8 330.1 130.2 327.6 133.9C317.2 149 307.1 164.3 297.3 179.9C292.3 187.9 285.5 190.9 276.5 190.2Z" fill="#F5FF00"/>
<path d="M808.1 281.5C813.4 291.6 814.3 302.5 812.9 313.4C808.6 346.1 799.2 377.4 786.3 407.6C785.1 410.4 784.2 413.5 781.1 414.8C778.1 414.5 778.4 412.3 778.4 410.5C779.6 373.3 783.5 336.6 794.5 300.9C798.5 288 800 286.4 808.1 281.5Z" fill="#F5FF00"/>
<path d="M529 0.299988C550.8 2.99999 572 3.69999 592 12.3C574.3 17 556.6 20.4 538.7 13.5C533.5 11.5 529.7 7.79999 529 0.299988Z" fill="#F5FF00"/>
<path d="M296.8 484.1C296 486.7 294.1 487.8 291.6 487.8C288.8 487.8 287.4 485.9 287.4 483.5C287.3 481 289.5 480.7 291.5 480.8C294 480.8 296.2 481.2 296.8 484.1Z" fill="#F5FF00"/>
</svg>
