<svg width="304" height="241" viewBox="0 0 304 241" fill="none" xmlns="http://www.w3.org/2000/svg">
<path d="M248.41 18.8999L249.61 17.5998C251.11 15.9998 250.61 15.9998 246.61 17.0998C244.41 17.6999 241.31 17.9999 234.41 17.9999C229.31 17.9999 225.11 17.8998 224.91 17.6998C224.81 17.4998 225.11 17.2999 225.71 17.2999C226.31 17.2999 226.51 17.0999 226.31 16.7999C225.71 16.0999 220.81 15.6998 219.81 16.1998C219.21 16.4998 219.51 16.5998 221.21 16.6998C222.61 16.6998 223.41 16.8998 223.21 17.1998C223.11 17.4998 221.91 17.6998 220.71 17.6998C218.41 17.6998 217.41 16.8998 217.31 15.0998C217.31 14.5998 217.11 14.1999 216.91 14.0998C215.91 13.6999 218.51 12.8998 219.91 13.1998C221.21 13.4998 221.21 13.4998 220.31 13.6998C218.01 13.9998 223.31 14.4999 228.81 14.4999C231.91 14.4999 233.71 14.3999 232.71 14.2999C231.71 14.1999 230.61 13.5999 230.01 12.8999L229.01 11.6998L230.41 11.3999C231.11 11.1999 233.31 11.0998 235.21 11.0998C238.41 11.0998 239.61 10.4999 237.91 9.8999C237.51 9.6999 239.21 9.69992 241.81 9.79992C244.41 9.89992 246.51 9.79985 246.51 9.59985C246.51 9.09985 243.81 8.59985 240.71 8.59985C239.31 8.59985 236.91 8.39985 235.31 8.09985C231.61 7.49985 216.11 6.99985 218.51 7.59985C219.51 7.79985 222.81 8.19987 225.91 8.49987C233.11 9.09987 235.41 9.99985 229.91 10.0998C227.41 10.0998 226.11 10.2998 226.01 10.6998C225.91 11.0998 225.41 11.0999 224.41 10.4999C223.61 9.99987 221.31 9.49992 219.01 9.29992C216.41 9.09992 214.21 8.59992 212.51 7.79992C211.11 7.09992 209.31 6.59985 208.61 6.59985C207.91 6.59985 206.91 6.39985 206.41 6.09985C205.71 5.69985 205.91 5.6999 207.11 5.8999C208.51 6.0999 208.41 6.0999 206.71 5.3999C204.01 4.2999 195.91 2.69992 191.01 2.29992C188.81 2.09992 187.31 1.79982 187.71 1.69982C188.11 1.59982 188.51 1.29987 188.51 0.999874C188.51 0.699874 188.11 0.599898 187.51 0.899898C187.01 1.0999 185.01 1.19985 183.11 1.09985C181.21 0.999849 178.91 0.899898 177.91 0.899898C175.71 0.899898 161.21 2.5999 160.81 2.8999C160.61 2.9999 157.31 3.19992 153.41 3.29992C148.61 3.39992 147.01 3.49992 148.51 3.79992C151.71 4.29992 159.21 4.29992 163.71 3.79992C172.31 2.79992 187.71 2.29985 188.11 3.09985C188.21 3.39985 189.51 3.59982 191.01 3.69982C192.41 3.79982 194.71 4.09987 196.01 4.49987C197.31 4.89987 200.01 5.59985 202.01 6.09985C206.11 7.09985 205.81 7.69992 201.41 7.79992C200.01 7.79992 197.11 8.0999 195.11 8.3999C191.81 8.8999 183.21 9.7999 171.41 10.8999C169.01 11.0999 163.11 11.4998 158.41 11.6998C153.71 11.8998 147.31 12.1999 144.31 12.3999C141.31 12.5999 138.41 12.7999 137.81 12.8999C137.21 12.8999 135.51 13.1999 134.11 13.3999C132.71 13.5999 129.81 13.8999 127.81 13.9999C125.51 14.0999 124.51 14.1999 125.21 14.4999C126.21 14.7999 126.01 14.8999 124.11 15.3999C120.51 16.3999 115.71 16.5998 99.21 16.5998C90.51 16.5998 83.5101 16.6999 83.6101 16.7999C83.7101 16.8999 86.61 17.0999 90.01 17.2999C93.41 17.4999 96.8099 17.6999 97.4099 17.7999C98.0099 17.8999 99.1101 17.9998 99.8101 18.0998C103.21 18.3998 94.8101 19.5998 89.3101 19.5998C85.7101 19.5998 83.0099 19.7999 82.9099 20.0998C82.8099 20.3998 81.1101 20.5998 79.1101 20.5998C76.4101 20.5998 75.5101 20.7999 75.1101 21.3999C74.7101 21.9999 73.3099 22.3999 70.4099 22.7999C68.1099 23.0999 66.1099 23.4999 65.9099 23.7999C65.7099 23.9999 65.21 24.1998 64.71 24.1998C63.81 24.1998 63.81 24.1999 64.71 24.5998C65.41 24.8998 65.4101 24.9999 64.3101 25.2999C63.6101 25.4999 62.8101 25.3998 62.6101 25.1998C62.4101 24.9998 61.5101 24.9998 60.6101 25.1998L59.1101 25.5998L60.4099 25.6998L61.71 25.7999L60.21 26.1998C59.11 26.4998 59.5101 26.4999 61.3101 26.2999C65.4101 25.7999 66.7099 25.9999 67.4099 26.9999C67.9099 27.8999 67.7101 27.9998 63.3101 28.6998C60.7101 29.0998 58.4101 29.5999 58.3101 29.8999C58.1101 30.0999 55.61 30.1999 52.71 29.9999C48.91 29.7999 47.7101 29.7998 48.1101 30.1998C48.6101 30.5998 48.4101 30.6999 47.3101 30.7999C46.5101 30.7999 45.5101 30.9999 45.1101 31.2999C44.3101 31.7999 38.1101 32.4999 30.8101 32.9999C26.8101 33.2999 16.11 34.7999 13.71 35.3999C11.41 35.9999 22.3101 35.4999 25.8101 34.7999C29.2101 34.1999 33.1101 34.1999 31.8101 34.7999C31.3101 34.9999 29.3101 35.4999 27.3101 35.8999C25.0101 36.2999 24.0101 36.6999 24.3101 36.8999C24.7101 37.1999 24.71 37.2999 24.01 37.3999C23.51 37.3999 22.81 37.5999 22.51 37.8999C21.81 38.4999 21.3101 38.4999 30.3101 37.0998C33.5101 36.5998 37.01 36.2999 38.01 36.4999C39.01 36.5999 39.8101 36.4999 39.6101 36.2999C39.5101 36.0999 40.11 35.8999 41.01 35.8999C42.61 35.9999 42.6099 35.9999 41.4099 36.2999C40.7099 36.4999 40.41 36.6999 40.71 36.7999C41.31 36.8999 41.31 36.8999 40.71 37.3999C40.31 37.6999 38.81 37.8999 37.21 37.8999C35.61 37.8999 33.41 38.1998 32.21 38.6998C28.81 39.8998 21.5101 39.6998 16.6101 38.1998C15.9101 37.9998 16.0101 38.0998 16.8101 38.6998C17.8101 39.3998 17.7099 39.4999 14.4099 39.4999C11.7099 39.5999 11.21 39.6999 12.21 39.9999C13.01 40.2999 11.5101 40.3999 8.11012 40.2999C4.51012 40.1999 3.41007 40.2999 4.81007 40.4999C6.51007 40.7999 6.11012 40.8998 3.11012 40.6998C-1.48988 40.4998 -0.590072 41.1998 4.40993 41.6998C6.30993 41.8998 8.30993 42.3999 8.90993 42.7999C9.60993 43.3999 11.61 43.6999 15.71 43.8999C18.91 44.0999 21.4101 44.3998 21.3101 44.5998C20.9101 45.2999 22.3099 45.4998 25.4099 45.1998C27.8099 44.9998 28.71 45.0998 29.51 45.6998C30.11 46.1998 31.3101 46.4999 32.1101 46.4999C32.9101 46.4999 33.7101 46.6999 33.8101 46.8999C33.9101 47.0999 34.5101 47.1998 35.1101 47.0998C36.6101 46.7999 40.3101 47.4999 39.8101 47.9999C39.6101 48.1999 38.7099 48.4998 37.9099 48.6998C36.8099 48.8998 37.01 48.8999 38.51 48.8999C39.71 48.8999 41.0101 48.9998 41.3101 49.1998C41.7101 49.3998 43.41 49.5999 45.21 49.7999C47.21 49.9999 48.0099 49.8998 47.4099 49.5998C46.4099 49.1998 46.5099 49.1998 47.9099 49.0998C48.8099 49.0998 49.81 48.8998 50.21 48.6998C50.71 48.4998 50.9101 48.4999 50.6101 48.9999C50.4101 49.3999 50.6101 49.5998 51.1101 49.5998C51.5101 49.5998 50.91 49.9999 49.71 50.3999C47.51 51.0999 31.3099 51.4999 30.4099 50.8999C30.2099 50.6999 30.01 50.7999 30.01 51.0998C30.01 51.3998 29.4101 51.5998 28.6101 51.5998C27.7101 51.5998 27.4101 51.7999 27.8101 51.9999C28.2101 52.2999 27.91 52.6999 26.71 53.2999C25.11 54.0999 25.11 54.0999 29.71 53.7999C33.21 53.5999 34.4099 53.5998 34.4099 54.0998C34.4099 54.3998 34.21 54.5999 34.01 54.3999C33.81 54.1999 33.5101 54.2999 33.3101 54.5998C33.2101 54.8998 33.3101 55.0998 33.6101 55.1998C34.4101 55.2998 35.91 55.3998 38.71 55.5998L41.1101 55.7999L39.4099 56.1998L37.71 56.5998H39.71C40.81 56.5998 43.2101 56.5998 45.1101 56.6998L48.6101 56.7999L45.9099 57.5998C43.6099 58.2999 42.91 58.2998 41.51 57.6998C40.61 57.2998 39.6099 57.1999 39.4099 57.3999C38.9099 57.7999 35.1099 57.7999 30.4099 57.4999C19.8099 56.7999 17.11 56.6998 18.01 57.0998C19.01 57.4999 19.0101 57.4999 17.6101 57.7999C16.8101 57.8999 18.0099 57.9999 20.4099 57.9999C22.8099 57.9999 25.8101 58.2999 27.1101 58.5998C28.4101 58.8998 30.41 59.2999 31.51 59.4999C32.61 59.6999 33.9101 60.0999 34.3101 60.4999C35.0101 61.0999 34.7099 61.1999 31.4099 61.2999C29.0099 61.2999 27.9099 61.4999 28.4099 61.7999C28.8099 62.0999 28.9101 62.3999 28.8101 62.4999C28.7101 62.5999 26.6101 62.8999 24.1101 62.9999C21.6101 63.0999 19.5099 63.3999 19.4099 63.4999C19.3099 63.6999 19.4101 63.7999 19.8101 63.7999C20.1101 63.7999 19.9101 63.9999 19.3101 64.2999C18.6101 64.5999 19.4099 64.6998 21.9099 64.6998C25.6099 64.6998 31.3101 65.4999 31.8101 65.9999C31.9101 66.1999 31.21 66.2999 30.21 66.2999C27.91 66.2999 26.5101 67.1998 27.3101 68.1998C27.6101 68.5998 28.1101 68.8999 28.3101 68.8999C28.5101 68.8999 28.91 69.1999 29.01 69.4999C29.21 69.8999 28.6101 69.9998 26.8101 69.6998L24.21 69.2999L25.71 70.7999L27.21 72.2999L25.6101 72.6998C24.7101 72.8998 23.1101 72.7999 22.1101 72.4999C21.1101 72.1999 19.0101 71.7998 17.6101 71.6998C15.4101 71.4998 14.8101 71.5998 14.6101 72.1998C14.2101 73.2998 15.3099 73.9998 16.9099 73.6998C17.6099 73.5998 18.7101 73.7998 19.3101 74.1998C20.5101 74.9998 20.3099 75.0999 17.9099 74.8999C16.6099 74.7999 16.31 74.9999 16.51 75.4999C16.71 75.9999 17.8099 76.2999 20.9099 76.4999C24.9099 76.6999 27.01 77.3999 27.01 78.4999C27.01 78.7999 26.7101 78.9999 26.3101 78.9999C25.9101 78.9999 25.6101 79.2998 25.6101 79.5998C25.6101 80.5998 21.3099 82.1998 18.9099 82.0998C17.6099 81.9998 16.9101 82.0999 17.1101 82.4999C17.3101 82.7999 16.11 83.0999 14.21 83.3999C9.90998 83.8999 9.51012 84.0999 9.61012 85.3999C9.71012 86.3999 10.1101 86.4999 12.3101 86.7999C14.6101 86.9999 14.9099 87.1998 14.9099 88.1998C14.9099 88.8998 14.6101 89.4998 14.1101 89.6998C13.3101 89.9998 13.31 89.9999 14.21 90.9999C15.01 91.8999 15.31 91.8999 16.21 91.4999C16.81 91.1999 18.2101 90.9999 19.3101 90.9999C20.6101 90.9999 20.9101 91.1999 20.1101 91.2999C17.9101 91.6999 18.9099 92.3998 21.4099 92.1998C22.8099 92.0998 26.1099 91.8998 28.9099 91.6998C33.6099 91.4998 33.8099 91.4998 32.4099 92.1998C31.6099 92.5998 29.7101 92.9999 28.3101 92.9999C26.8101 92.9999 25.3101 93.1999 24.8101 93.3999C24.1101 93.6999 24.3101 93.8999 25.8101 94.4999C26.8101 94.8999 27.6101 95.4999 27.8101 95.7999C27.9101 96.0999 29.2101 96.7999 30.6101 97.2999C33.2101 98.1999 33.2101 98.2998 32.3101 99.0998C31.4101 99.8998 31.6101 99.8998 36.3101 100.2C41.8101 100.6 44.51 101 44.51 101.6C44.51 102.6 43.11 103.2 41.51 102.9C39.21 102.5 37.8101 102.9 38.6101 103.9C39.4101 104.9 42.8101 104.8 46.6101 103.7C50.2101 102.6 52.2101 102.4 51.8101 103.2C51.7101 103.5 50.31 103.8 48.71 104C45.01 104.5 45.5101 105.3 49.6101 105.3C53.2101 105.3 61.2101 106.6 62.3101 107.3C63.1101 107.9 62.9101 107.9 52.6101 108.1C48.8101 108.2 44.71 108.5 43.51 108.7C41.41 109.2 41.51 109.2 45.51 109.2C47.81 109.2 50.31 109.1 51.21 108.8C52.11 108.5 53.8101 108.6 55.3101 108.9C57.7101 109.4 57.81 109.4 56.51 109.9C55.81 110.1 54.31 110.3 53.21 110.2C49.31 110 34.1099 110.9 33.9099 111.4C33.8099 111.6 33.91 111.8 34.21 111.8C34.51 111.8 34.6099 112 34.4099 112.3C34.3099 112.6 33.01 112.8 31.71 112.8C30.41 112.8 29.41 112.9 29.51 113.1C29.61 113.3 35.1101 113.4 41.6101 113.4C53.4101 113.4 57.61 113.9 51.71 114.7C49.01 115 48.8099 115.1 49.9099 115.6C51.7099 116.3 50.5101 117 47.1101 117.1C44.3101 117.2 44.31 117.2 48.21 117.6C53.81 118.2 54.0099 118.4 48.9099 118.6C46.3099 118.7 44.9101 118.9 45.6101 119C46.8101 119.3 46.8101 119.4 46.1101 120.2C45.4101 121 45.5101 121.1 47.1101 121.4C48.0101 121.6 48.91 121.9 49.01 122.2C49.21 122.7 47.81 123.2 46.21 123.3C45.21 123.4 45.21 123.4 46.51 123.9C47.31 124.2 47.9099 124.6 47.9099 124.8C47.9099 125 48.3101 125.7 48.8101 126.3L49.71 127.3H46.4099C44.0099 127.3 42.9099 127.5 42.4099 128.1C41.8099 128.8 41.1099 128.8 37.9099 128.5C35.8099 128.3 33.71 127.9 33.21 127.7C32.51 127.4 32.21 127.5 32.01 128C31.81 128.5 31.11 128.7 30.01 128.7C29.01 128.7 28.3101 128.9 28.3101 129.2C28.3101 129.5 29.1101 129.7 30.1101 129.7C31.3101 129.7 31.81 129.9 31.71 130.3C31.61 130.8 30.4099 130.9 27.4099 130.8C22.7099 130.6 22.7099 131.5 27.4099 132C29.0099 132.2 31.2101 132.8 32.3101 133.3C33.4101 133.8 35.51 134.4 37.01 134.6C38.61 134.8 39.4101 135.1 39.1101 135.3C38.7101 135.6 38.81 135.8 39.51 136.1C40.01 136.3 40.51 136.7 40.51 137C40.51 137.3 42.11 137.5 44.21 137.5C46.21 137.5 47.9099 137.7 47.9099 138C47.9099 138.3 48.5101 138.8 49.3101 139.2L50.71 140L49.21 140.3C48.31 140.5 48.0101 140.7 48.3101 140.9C49.9101 141.6 53.2101 142.3 54.6101 142.3C56.0101 142.3 56.1101 142.4 55.6101 143.3C54.9101 144.5 53.81 144.6 48.51 143.5C46.41 143.1 44.1101 142.7 43.6101 142.7C41.9101 142.7 42.9101 143.5 45.6101 144.2L48.1101 144.9L46.4099 145.2C45.1099 145.5 44.91 145.6 45.71 145.7C46.31 145.8 47.1101 145.8 47.6101 145.8C48.0101 145.8 48.31 145.9 48.21 146.1C48.11 146.3 48.2099 147 48.4099 147.6C48.7099 148.4 49.4101 148.9 51.3101 149.4L53.8101 150.1L52.1101 150.2C48.4101 150.5 46.7099 150.9 46.9099 151.4C47.1099 151.7 48.0101 151.8 49.3101 151.6C50.6101 151.4 51.51 151.5 51.71 151.8C51.91 152.1 52.5101 152.3 53.1101 152.3C53.8101 152.3 54.1099 152.5 53.9099 152.9C53.7099 153.2 52.8101 153.3 51.6101 153.1C50.0101 152.8 49.3101 153 48.3101 153.9C47.1101 154.9 47.11 155 48.01 154.7C48.61 154.6 49.51 154.7 50.21 155C51.91 155.8 57.0101 156.8 64.1101 157.8C67.6101 158.3 69.9101 158.7 69.3101 158.8C66.4101 159.2 65.4101 159.5 65.6101 160C65.7101 160.3 65.3101 160.5 64.6101 160.5C62.2101 160.5 59.3101 161.1 59.6101 161.6C59.7101 161.9 59.6101 162 59.3101 162C59.0101 161.9 58.01 161.9 57.21 162C56.11 162.1 55.8101 162.2 56.3101 162.6C57.3101 163.3 53.8099 163.2 48.9099 162.3C46.6099 161.9 44.5101 161.6 44.1101 161.6C42.6101 161.7 51.1101 164.5 53.8101 164.8C57.1101 165.2 58.1101 166.1 55.3101 166.2L53.4099 166.3L55.4099 166.7C56.5099 166.9 58.3099 167.1 59.4099 167.1C61.5099 167.1 61.9099 167.5 60.9099 168.6C60.5099 169.1 60.5099 169.2 60.9099 169.2C61.2099 169.2 61.4099 169 61.4099 168.8C61.4099 168.2 63.71 168.7 64.51 169.6C64.91 170 66.1101 170.6 67.1101 171C69.0101 171.7 68.91 171.7 64.51 171.5C60.11 171.3 60.0099 171.3 61.9099 172C63.7099 172.7 63.81 172.7 62.51 172.7C61.71 172.7 60.6099 172.5 59.9099 172.2C57.7099 171.2 52.9101 169.7 51.8101 169.7C51.2101 169.7 49.71 170 48.51 170.3C46.41 170.8 46.31 170.9 47.01 171.6C48.31 172.7 47.5099 173 44.9099 172.3C43.0099 171.8 42.3101 171.8 41.8101 172.3C41.2101 172.9 40.01 172.8 36.01 172C34.91 171.8 34.6101 171.8 35.1101 172.2C35.6101 172.6 35.2101 172.8 33.6101 172.8L31.4099 172.9L33.4099 173.4C35.2099 173.8 36.9101 175.5 36.3101 176.2C36.1101 176.5 32.61 176.8 29.21 176.8C28.11 176.8 27.4101 177 27.6101 177.3C27.8101 177.6 27.3099 177.8 26.4099 177.9C25.0099 178 28.9099 178.6 33.9099 179.1C38.2099 179.5 43.1101 180.3 43.3101 180.6C43.4101 180.8 42.41 180.9 41.01 180.9C37.91 180.9 33.21 182.1 34.51 182.5C35.81 182.9 19.41 182.4 15.21 181.8C10.71 181.2 5.11007 181.2 6.31007 181.8C7.81007 182.5 21.1099 184.8 28.4099 185.7C32.2099 186.1 37.8101 186.8 40.8101 187.2C43.8101 187.6 48.1101 187.9 50.3101 187.9C56.0101 187.9 61.81 188.8 63.21 189.8L64.4099 190.7L62.21 191C59.81 191.3 60.31 191.8 63.51 192.2C64.71 192.4 67.8099 193.1 70.4099 193.8L75.21 195.1L71.3101 194.9C60.8101 194.2 58.81 194.2 60.01 194.6L61.3101 195L59.9099 195.1C59.1099 195.1 58.51 195.3 58.51 195.5C58.51 196 55.21 195.8 50.01 194.8C45.91 194 43.3101 194.1 43.3101 195.1C43.3101 195.3 44.9099 195.8 46.9099 196.1C48.9099 196.4 51.5099 196.9 52.9099 197.1C54.3099 197.3 58.2101 197.9 61.8101 198.4C65.4101 198.9 69.0101 199.4 69.8101 199.6L71.3101 199.9L69.8101 200.4C69.0101 200.7 66.7101 200.9 64.8101 200.9C61.4101 200.9 61.4101 200.9 63.1101 201.5L64.8101 202.1L63.3101 203L61.8101 203.9H64.6101C66.1101 203.9 67.91 204.1 68.51 204.3L69.6101 204.6L68.51 205C67.51 205.3 67.5101 205.4 68.8101 205.4C69.6101 205.4 70.21 205.7 70.21 205.9C70.21 206.2 68.3101 206.3 65.1101 206.1C62.3101 205.9 60.1101 205.9 60.3101 206.1C60.4101 206.3 61.41 206.8 62.51 207.2L64.4099 207.9H62.21C61.01 207.9 59.0101 207.9 57.6101 208L55.21 208.1L58.9099 208.8C60.9099 209.2 64.1101 209.5 66.1101 209.5C68.0101 209.5 71.6101 209.8 74.1101 210.2C76.6101 210.6 80.3101 211 82.3101 211C88.7101 211.1 86.71 211.6 79.71 211.6L73.01 211.7L82.51 212.4C87.71 212.8 92.2101 213.2 92.6101 213.3C93.9101 213.9 93.1101 214.6 91.3101 214.6C89.2101 214.6 88.2099 215.4 89.9099 215.8C90.4099 215.9 89.9101 216 88.6101 216C87.4101 216 86.4101 215.8 86.6101 215.6C86.7101 215.4 86.5101 215.2 86.1101 215.2C85.7101 215.2 85.51 215.4 85.71 215.8C85.91 216.2 85.01 216.3 82.71 216.1C80.91 216 79.31 216 79.21 216.1C79.11 216.3 77.21 216.4 75.01 216.5C72.51 216.6 71.3099 216.5 71.9099 216.2C73.0099 215.7 72.3101 215.5 69.3101 215.7C66.0101 215.9 52.71 212.7 48.71 210.8C47.81 210.4 46.9101 210.1 46.8101 210.2C46.5101 210.5 51.6101 213.1 52.6101 213.2C53.2101 213.2 53.21 213.3 52.51 213.6C51.81 213.9 52.01 214.1 53.51 214.4C55.31 214.8 55.9101 215.4 54.8101 215.9C54.5101 216 54.6101 216.2 55.1101 216.2C55.5101 216.2 57.31 216.6 59.01 217.1C61.41 217.8 61.91 218 61.01 218.3C60.21 218.5 60.9099 218.8 63.4099 219.2C65.3099 219.5 67.0101 220 67.3101 220.3C67.5101 220.6 67.4099 220.7 66.9099 220.6C66.4099 220.5 64.1101 220 61.8101 219.6C59.4101 219.1 57.31 218.6 57.01 218.4C56.81 218.2 55.5101 217.8 54.3101 217.6C52.7101 217.3 52.0099 217 51.9099 216.3C51.7099 215.6 51.1101 215.3 49.6101 215C48.4101 214.8 47.1101 214.5 46.6101 214.3C46.1101 214.1 44.91 214.1 44.01 214.3C42.61 214.6 42.51 214.7 43.51 214.7C45.01 214.8 47.41 216.2 47.01 216.8C46.91 217.1 47.01 217.3 47.21 217.3C47.51 217.3 47.91 217.5 48.21 217.8C48.51 218.1 49.1101 218.7 49.6101 219.1C50.4101 219.8 50.31 219.8 48.01 219.8C46.61 219.8 44.9101 219.5 44.1101 219C42.8101 218.3 42.8101 218.3 43.6101 219.1C44.1101 219.6 45.11 220.3 46.01 220.7C47.41 221.4 47.41 221.5 46.71 221.9C46.01 222.2 46.11 222.3 47.21 222.3C47.91 222.3 48.81 222.7 49.01 223C49.21 223.3 50.51 223.9 51.71 224C55.11 224.5 55.6101 224.9 54.1101 225.6L52.8101 226.2L54.51 226.8C55.41 227.1 57.31 227.4 58.51 227.4C59.81 227.4 61.2101 227.7 61.8101 228.1C62.3101 228.5 64.3101 229.1 66.1101 229.4C68.0101 229.7 69.61 230.2 69.71 230.5C69.81 230.7 70.4099 230.9 70.9099 230.9C71.4099 230.9 72.21 231.2 72.51 231.7C72.81 232.1 73.41 232.4 73.71 232.2C74.11 232.1 75.0101 232.3 75.6101 232.7C76.3101 233.1 77.6101 233.5 78.6101 233.5C80.9101 233.5 86.01 234.5 86.51 235.1C86.71 235.3 87.9101 235.6 89.1101 235.6C90.3101 235.6 91.01 235.8 90.71 235.9C89.81 236.3 90.1101 237.1 91.1101 237.1C91.6101 237.1 91.91 236.9 91.71 236.6C91.31 235.9 93.41 236 94.01 236.7C94.51 237.3 105.71 237.8 106.51 237.2C107.11 236.7 127.71 237.7 127.91 238.2C128.01 238.4 128.31 238.5 128.71 238.4C129.11 238.2 129.31 238.4 129.31 238.9C129.31 239.5 129.61 239.6 130.61 239.4C131.31 239.2 131.91 239.3 131.91 239.6C131.91 239.9 133.21 240.1 134.81 240.2C136.41 240.3 137.41 240.1 137.01 239.9C136.61 239.7 142.31 239.5 149.81 239.5C157.21 239.5 166.91 239.2 171.31 238.8C175.71 238.4 181.91 237.9 185.01 237.7C188.11 237.5 190.01 237.3 189.11 237.2C188.31 237.1 187.21 237.1 186.71 237.1C186.01 237.2 185.91 237.1 186.51 236.6C186.91 236.3 188.81 236.1 190.81 236.1C196.31 236.1 198.61 235.9 198.61 235.6C198.61 235.4 200.91 235.1 203.71 235C206.51 234.8 209.31 234.5 209.81 234.3C210.61 234 210.81 234.1 210.61 234.6C210.31 235.6 206.61 236.6 203.41 236.6C201.41 236.6 200.71 236.8 200.81 237.2C201.01 237.9 204.81 237.8 207.01 237.1C208.21 236.7 211.71 236.3 215.21 236.1C216.31 236 216.41 236 215.71 235.6C214.11 234.9 217.51 234 222.61 233.8C227.91 233.6 226.61 234.2 220.51 234.9C218.61 235.1 217.01 235.4 216.91 235.7C216.71 236.1 219.61 235.9 224.11 235.2C225.61 234.9 228.01 234.6 229.31 234.4C230.61 234.2 232.81 233.8 234.11 233.4C235.41 233 238.21 232.4 240.41 232.1C242.51 231.7 243.91 231.4 243.51 231.2C242.51 230.9 246.41 229.1 248.01 229.1C249.51 229.1 248.91 229.6 246.41 230.4C244.91 230.9 244.81 231 245.81 230.9C248.41 230.4 250.61 229.6 250.41 229.2C250.11 228.7 251.51 228.2 253.41 228.1C254.21 228.1 254.41 227.9 253.91 227.8C253.21 227.6 253.21 227.4 253.71 226.8C254.21 226.1 254.11 226 252.51 226.3L250.81 226.6L252.51 225.9C253.51 225.5 256.21 224.3 258.61 223.1C261.01 221.9 263.01 221 263.21 221C263.31 221 263.01 220.8 262.61 220.6C261.81 220.2 261.91 220.2 263.11 219.8C264.51 219.4 265.51 218.5 264.51 218.5C263.91 218.5 257.81 220.6 254.61 221.9C253.51 222.3 252.11 222.8 251.31 222.8C250.61 222.9 247.91 223.6 245.31 224.5C242.31 225.5 239.61 226.1 237.81 226.1C236.31 226.1 235.01 226.3 234.81 226.6C234.71 226.9 232.91 227.1 231.01 227.1H227.41L230.31 226.4C235.71 225.1 246.61 221.1 252.11 218.2C253.81 217.3 256.91 216.5 258.61 216.5C259.31 216.5 260.51 216.1 261.11 215.7C261.81 215.3 263.11 214.8 264.01 214.6C265.71 214.3 266.41 213.4 264.91 213.4C263.91 213.4 253.01 216.7 250.51 217.7C248.51 218.6 247.21 218.7 248.31 218C248.71 217.8 250.31 217 251.91 216.4C253.51 215.8 254.81 215.1 254.81 214.8C254.81 214.1 250.51 214.7 246.81 215.8C244.91 216.4 243.31 216.8 243.21 216.7C243.01 216.4 249.21 213.8 250.11 213.8C250.51 213.8 250.91 213.5 250.91 213C250.91 212 250.41 212 247.91 213.4C246.71 214.1 245.01 214.6 243.91 214.6C242.11 214.6 242.21 214.5 245.71 213.2C247.71 212.4 250.21 211.5 251.11 211.2C252.91 210.6 255.91 208.7 255.61 208.3C255.51 208.2 254.51 208.4 253.31 208.9C251.51 209.6 251.11 209.6 250.21 209L249.11 208.3L250.51 207.7C252.21 207 252.91 205.6 251.31 206.1C250.71 206.3 248.71 206.8 246.81 207.2C244.91 207.6 242.21 208.3 240.71 208.7C239.31 209.1 237.11 209.5 235.91 209.7C234.71 209.9 233.21 210.1 232.51 210.3C231.41 210.6 231.31 210.5 231.71 209.6C232.31 208.3 233.91 207.9 238.71 207.7C241.91 207.6 242.71 207.4 244.81 206C246.11 205.1 247.91 204.3 248.71 204.1C249.51 203.9 250.51 203.5 250.81 203.2C251.31 202.8 251.31 202.8 250.71 203C250.31 203.1 249.91 203.1 249.71 202.8C249.51 202.4 253.41 200.8 257.51 199.7C258.71 199.4 261.01 198.7 262.61 198.1C264.81 197.4 266.71 197.1 270.21 197.2C273.41 197.3 275.51 197 276.91 196.5C278.81 195.8 279.11 195.8 280.01 196.5C280.71 197.1 281.01 197.1 281.01 196.7C281.01 196.2 281.11 196.2 281.61 196.7C282.01 197 282.71 197.2 283.31 197.1C283.91 197 284.41 197.1 284.41 197.3C284.41 198.1 286.11 197.8 286.51 196.8C286.91 196 286.91 196.1 287.01 197.1C287.01 198.1 287.11 198.2 287.61 197.7C288.61 196.7 290.71 196.5 291.01 197.4C291.31 198.4 292.11 198.4 293.71 197.5C294.41 197.1 295.21 196.9 295.51 197.1C295.91 197.3 296.91 196.5 298.21 195C299.31 193.7 301.01 192.3 301.91 191.9C303.21 191.3 303.51 190.8 303.51 189.9C303.51 188.3 302.31 187.6 301.01 188.2C300.21 188.5 300.01 189 300.21 189.8C300.31 190.4 300.21 191.2 299.91 191.5C299.31 192.1 297.51 192.2 297.51 191.6C297.51 191.4 297.11 191.4 296.61 191.7C296.11 192 295.61 192.1 295.41 192C295.31 191.8 294.91 192 294.61 192.2C294.21 192.6 293.91 192.4 293.31 191.5C292.61 190.3 292.51 190.3 291.31 191C290.61 191.4 290.11 192 290.31 192.2C290.51 192.5 290.81 192.5 291.11 192.2C291.51 191.8 291.81 192.2 292.21 193.5C292.51 194.5 292.61 195.4 292.51 195.6C292.41 195.8 292.21 195.6 292.21 195.3C292.21 195 291.81 194.7 291.31 194.7C290.81 194.7 290.31 194.4 290.21 194C290.01 193.5 289.61 193.5 288.21 194.3C286.51 195.3 286.41 195.3 285.21 194.5C284.31 193.8 283.71 193.8 283.11 194.2C282.01 194.9 281.81 194.9 281.81 194C281.81 193 280.91 193 280.31 194.1C279.81 194.9 279.71 194.9 278.41 194.2C277.51 193.7 276.61 193.5 275.91 193.8C275.31 194 274.41 194.1 273.91 194C273.41 193.9 272.81 194.2 272.51 194.6C271.91 195.4 271.11 195.6 271.11 195C271.11 194.8 271.41 194.3 271.91 193.9C272.41 193.5 272.41 193.3 272.21 193.5C271.91 193.7 271.61 193.4 271.51 193C271.41 192.6 271.01 192.2 270.61 192.2C269.81 192.2 269.31 193.6 270.01 193.9C271.11 194.4 267.41 195.7 265.51 195.5C264.41 195.4 263.11 195.5 262.41 195.8C261.81 196.1 261.01 196.3 260.71 196.1C259.91 195.8 264.11 193.4 266.91 192.6C268.71 192.1 269.41 191.6 269.81 190.7C270.31 189.5 270.31 189.5 269.31 190.3C268.71 190.7 267.31 191.2 266.11 191.4C264.11 191.7 263.91 191.6 263.91 190.8C263.91 190.3 264.31 189.3 264.81 188.7C266.21 187 265.61 186.9 263.21 188.3C261.21 189.5 259.51 189.9 258.91 189.2C258.51 188.7 259.91 186.5 260.51 186.5C260.81 186.5 261.31 186.2 261.61 185.8C261.91 185.4 262.61 184.9 263.31 184.8C264.01 184.7 266.01 183.9 267.91 183.3C269.81 182.6 272.61 181.7 274.11 181.1C276.91 180.1 277.71 179.4 275.61 179.7L274.41 179.9L275.51 179.3C276.11 179 277.21 178.8 278.01 178.9C279.61 179.1 279.91 178.1 278.51 177.2C277.61 176.6 271.71 176.8 270.21 177.5C269.61 177.8 269.51 177.6 269.71 177.1C269.91 176.6 269.51 176.2 268.61 175.8C267.01 175.2 266.91 174.6 268.21 174.8C270.11 175 270.71 174.7 270.91 173.5C271.11 172.7 271.61 172.1 272.31 171.9C272.91 171.7 273.81 171.4 274.31 171.1C275.41 170.5 272.51 171 270.01 171.8C268.61 172.2 268.51 172.4 269.21 172.6C269.71 172.7 270.21 173 270.21 173.2C270.21 173.7 266.51 174.8 264.91 174.7C263.61 174.7 263.71 174.6 265.41 174.1C268.91 173.2 268.51 172.5 264.81 172.9C262.91 173.1 261.21 173.4 261.11 173.6C261.01 173.8 260.21 174 259.41 174C258.61 174 257.71 174.4 257.41 174.9C257.11 175.4 256.31 175.8 255.61 176C254.61 176.3 254.51 176.2 255.01 175.8C255.91 175.1 255.31 175.1 252.11 176C248.21 177.1 243.51 177.6 243.91 176.9C244.31 176.2 249.51 174.3 250.91 174.3C251.51 174.3 251.91 174.1 251.91 173.9C251.61 172 253.31 171.2 261.41 169.1C262.91 168.7 264.11 168.3 264.11 168.1C264.11 167.9 262.81 167.8 261.31 167.8C259.81 167.8 258.61 167.7 258.71 167.5C258.81 167.3 259.41 167.1 259.91 167.1C260.41 167.1 261.31 166.8 261.71 166.4C262.21 166 262.91 165.6 263.41 165.6C264.11 165.6 264.21 165.5 263.61 165.1C263.11 164.7 263.51 164.7 264.91 164.9C266.01 165.1 266.91 165.4 267.01 165.7C267.21 166.3 268.71 166.2 269.01 165.6C269.11 165.3 269.11 165.1 268.81 165.1C268.11 165.1 268.61 163.3 269.41 163.1C269.91 163 270.11 163.1 269.91 163.5C269.71 163.9 269.91 163.9 270.51 163.4C271.41 162.7 271.81 161.4 271.01 161.4C270.81 161.4 269.71 161.7 268.51 162.2C265.91 163.1 265.51 163.2 266.11 162.3C266.41 161.9 267.81 161.2 269.21 160.7C270.61 160.2 271.81 159.6 271.81 159.3C271.81 158.5 269.51 159.6 263.31 163.4C262.31 164 260.81 164.6 259.81 164.7C258.81 164.8 256.81 165.3 255.31 165.8C253.81 166.2 252.21 166.5 251.81 166.4C251.41 166.3 252.11 165.9 253.31 165.6C255.51 164.9 259.91 162.6 260.31 161.9C260.61 161.2 259.71 161.4 258.31 162.3C257.61 162.7 256.51 163.3 255.91 163.6C254.91 164 254.81 164 255.31 163.4C255.61 163 255.71 162.4 255.61 162.2C255.51 161.9 255.61 161.6 255.91 161.5C256.21 161.4 256.31 161.1 256.21 160.9C256.11 160.7 255.01 161.2 253.91 161.9C251.61 163.4 251.11 163.3 252.31 161.6C252.91 160.8 253.61 160.4 254.91 160.3C255.91 160.2 256.91 160 257.21 159.8C257.91 159.3 261.91 157.6 266.21 155.9C269.31 154.7 270.41 153.8 271.01 152.1C271.21 151.5 271.71 151 272.01 151C272.31 151 272.71 150.7 272.71 150.2C272.71 149.6 273.21 149.4 274.41 149.4C275.31 149.4 276.21 149.1 276.41 148.8C276.61 148.4 276.21 148.3 274.91 148.6C273.81 148.8 272.81 148.7 272.31 148.3C271.61 147.8 271.21 147.8 270.41 148.4C269.51 149 269.11 149 268.11 148.5L266.91 147.9L268.21 147.1C269.21 146.5 270.61 146.4 274.31 146.5C277.81 146.6 278.81 146.6 277.91 146.2C276.51 145.6 276.41 145.1 277.51 144.7C278.01 144.6 277.81 144.4 277.11 144.4C276.51 144.4 275.91 144.5 275.81 144.8C275.71 145 274.01 145.4 272.01 145.6L268.31 146L269.41 145C270.01 144.4 271.11 143.8 271.81 143.6C272.51 143.4 273.91 142.4 274.91 141.3C276.61 139.4 276.71 139.3 275.71 139.1C275.11 139 272.81 139.1 270.61 139.5C267.21 140 266.51 140.3 266.61 141C266.71 141.6 266.31 141.9 265.41 142.2C264.71 142.4 263.91 142.4 263.71 142.3C263.51 142.2 262.21 142.4 260.81 142.8C257.81 143.7 257.11 143.7 258.01 143.1C258.41 142.8 258.51 142.4 258.31 142.2C258.11 142 256.41 142.5 254.51 143.3C252.61 144.1 250.91 144.6 250.81 144.5C250.51 144.2 255.31 141.6 256.21 141.6C256.61 141.6 258.11 141.2 259.51 140.6C263.71 139 267.01 138.3 271.11 138.3C275.01 138.3 275.61 138 274.11 137C272.91 136.2 268.91 135.7 269.71 136.4C270.21 136.8 269.91 136.9 268.31 137C267.01 137 266.31 136.8 266.51 136.5C266.61 136.2 267.11 136 267.61 136C268.11 136 269.01 135.6 269.81 135.2L271.31 134.4L269.81 134.7C265.11 135.5 263.71 135.6 263.71 135.1C263.71 134.8 265.31 134.4 267.21 134.3C269.11 134.1 271.11 133.8 271.61 133.5C272.11 133.2 272.91 132.9 273.41 132.7C274.21 132.4 274.21 132.3 273.31 131.4C272.21 130.2 272.11 129.4 273.01 129.4C273.61 129.4 275.01 127.6 275.01 126.7C275.01 126.5 274.31 126.3 273.51 126.3C271.61 126.3 271.01 124.5 272.61 123.6C273.21 123.3 273.61 122.8 273.61 122.6C273.61 122.4 274.51 121.9 275.51 121.6C276.61 121.3 277.91 120.6 278.41 120.1C278.91 119.6 279.51 119.1 279.81 118.9C280.11 118.8 280.01 118.4 279.51 117.7C278.91 116.9 278.21 116.8 275.71 116.9C273.41 117 272.71 116.9 272.81 116.4C272.91 116 273.61 115.6 274.21 115.5L275.51 115.2L274.51 114.4C273.61 113.7 273.21 113.7 269.51 115.1C267.31 115.9 265.21 117 265.01 117.4C264.61 118 264.41 118.1 263.81 117.5C263.41 117.1 262.61 117 261.91 117.2C261.01 117.4 260.81 117.4 261.31 117C261.71 116.7 262.51 116.5 263.21 116.4C264.01 116.4 264.51 116.1 264.61 115.5C264.71 114.9 265.31 114.6 266.61 114.5C267.61 114.4 269.61 113.9 271.01 113.3C273.41 112.4 273.41 112.3 271.81 112.5C270.51 112.7 269.91 112.5 269.51 112C269.11 111.5 269.11 111.2 269.41 111.2C269.71 111.2 269.91 110.8 269.91 110.4C269.91 109.8 269.61 109.6 268.41 109.8L266.91 110L267.81 108.8C269.21 107 273.61 106 272.71 107.6C272.61 107.8 272.81 108.4 273.21 108.8C273.61 109.2 273.81 109.8 273.61 110.1C273.31 110.8 275.41 111.3 276.31 110.7C276.91 110.3 276.91 110.2 276.11 109.9C275.51 109.7 275.21 109.1 275.21 108.3C275.21 107.6 274.91 106.9 274.51 106.6C273.91 106.2 274.01 106 274.91 105.3C275.51 104.8 276.01 104.2 276.01 104C276.01 103.7 275.01 103.1 273.71 102.5C272.41 101.9 271.71 101.5 271.91 101.4C273.11 101.3 274.01 96.7999 272.81 96.7999C272.21 96.7999 270.71 95.2998 270.71 94.6998C270.71 94.4998 271.61 94.1999 272.71 93.9999C274.71 93.6999 275.01 92.6998 273.21 92.6998C272.31 92.6998 272.41 92.5999 273.51 91.8999C274.51 91.1999 274.91 91.1999 276.01 91.7999C276.71 92.1999 277.21 92.6998 277.11 93.0998C276.91 93.6998 277.11 93.7999 279.11 93.9999C279.71 94.0999 280.51 94.2999 280.81 94.4999C281.11 94.6999 281.61 94.4999 281.91 93.8999C282.71 92.5999 282.71 92.1998 281.61 92.1998C281.11 92.1998 280.11 91.7999 279.31 91.2999C278.51 90.7999 277.91 90.3999 277.81 90.2999C277.71 90.2999 277.81 89.6998 277.91 89.1998C278.11 88.2998 278.31 88.1998 279.11 88.6998C280.01 89.1998 280.01 89.1999 279.21 88.4999C276.61 86.1999 276.11 84.7999 278.11 85.2999C279.31 85.5999 279.41 85.4998 279.11 84.1998C278.81 82.4998 278.91 82.7999 277.71 82.2999C276.91 81.9999 276.71 82.0998 276.91 82.6998C277.11 83.2998 276.91 83.3998 276.11 83.1998C274.81 82.8998 274.81 82.3999 276.01 80.9999C276.51 80.3999 276.81 79.5998 276.71 79.1998C276.31 78.0998 273.11 75.8999 271.91 75.8999C271.31 75.8999 270.81 75.6999 270.81 75.3999C270.81 75.0999 271.31 74.8999 271.81 74.8999C272.41 74.8999 273.21 74.5998 273.61 74.1998C274.41 73.4998 274.41 73.4999 273.31 73.3999C272.71 73.3999 272.01 73.0999 271.81 72.7999C271.61 72.3999 271.41 72.3999 271.01 72.7999C270.71 73.0999 269.91 73.3999 269.21 73.3999H267.91L268.91 72.5998C269.41 72.1998 270.11 71.8999 270.41 71.9999C270.71 72.0999 271.21 71.8998 271.61 71.5998C272.01 71.2998 273.21 70.5998 274.31 70.0998C275.41 69.5998 276.51 68.9999 276.61 68.7999C276.71 68.5999 275.21 68.1999 273.31 67.9999C269.31 67.5999 269.51 66.6999 273.61 66.7999C275.01 66.7999 277.01 66.5999 278.11 66.2999C279.21 65.9999 280.11 65.9998 280.21 66.1998C280.41 66.7998 282.81 66.1999 284.01 65.2999C284.71 64.6999 285.81 64.6999 288.41 64.8999C291.51 65.1999 291.91 65.1999 291.91 64.3999C291.91 63.1999 289.91 62.3998 287.81 62.6998C286.81 62.8998 285.31 62.6998 284.21 62.1998C282.51 61.4998 282.31 61.4999 281.51 62.2999C281.11 62.7999 280.61 63.5998 280.41 64.0998C280.21 64.7999 279.91 64.9999 279.21 64.7999C276.91 64.0999 274.61 63.2998 272.91 62.6998C270.41 61.7998 269.91 61.7999 269.61 62.9999C269.41 63.6999 269.01 63.9999 268.21 63.9999C267.61 63.9999 267.11 64.1998 267.11 64.5998C267.11 64.8998 267.61 64.9999 268.51 64.7999C269.81 64.4999 269.91 64.4999 269.11 65.2999C268.51 65.8999 267.31 66.0998 265.01 66.0998H261.71L262.71 65.0998C263.21 64.5998 263.61 63.8998 263.61 63.6998C263.51 63.4998 264.11 63.0999 264.81 62.9999C265.81 62.6999 265.91 62.6998 265.11 62.5998C263.91 62.4999 264.21 61.4999 265.41 61.4999C265.81 61.4999 266.71 60.8998 267.21 60.1998C267.81 59.4998 268.61 58.8999 269.01 58.8999C269.41 58.8999 269.81 58.6999 269.81 58.3999C269.81 58.0999 269.11 57.8999 268.31 57.8999C267.31 57.8999 266.71 57.5998 266.51 57.0998C266.41 56.6998 265.81 56.2999 265.31 56.2999C264.41 56.2999 262.11 53.4999 262.31 52.5998C262.41 52.3998 262.01 52.1998 261.61 52.1998C261.21 52.1998 260.51 51.7999 260.21 51.3999C259.71 50.6999 259.01 50.5999 256.71 50.7999C255.11 50.8999 253.61 50.7999 253.51 50.5998C253.41 50.3998 253.91 50.1998 254.71 50.1998C255.91 50.1998 257.21 49.4999 258.51 48.2999C258.61 48.1999 258.41 47.8998 258.11 47.5998C257.61 47.1998 257.81 47.0998 258.81 47.0998C259.61 47.0998 260.31 46.7999 260.51 46.4999C260.71 46.0999 260.41 45.9998 259.41 46.1998C257.91 46.4998 257.61 45.8998 258.81 45.0998C259.21 44.7999 259.31 44.5998 259.01 44.5998C258.71 44.5998 258.51 44.1999 258.51 43.7999C258.51 43.1999 258.11 43.0999 256.81 43.3999C255.61 43.5999 255.11 43.4998 255.11 43.1998C255.11 42.8998 255.51 42.5998 256.11 42.5998C256.61 42.5998 257.51 42.1999 257.91 41.7999C258.71 41.0999 258.51 41.0998 255.61 41.0998H252.51L253.21 39.5998C253.81 38.1998 254.11 38.0998 255.81 38.0998C256.91 38.0998 257.71 37.8998 257.71 37.5998C257.71 37.2999 258.61 36.5999 259.71 35.9999C261.41 34.9999 262.11 34.8998 264.51 35.1998C266.01 35.3998 267.31 35.6999 267.31 35.8999C267.31 36.0999 267.91 36.1998 268.61 36.0998C270.41 35.7999 270.21 35.1999 268.31 34.3999C267.41 34.0999 266.51 33.5999 266.21 33.3999C266.01 33.1999 264.91 32.7998 263.81 32.6998C262.31 32.3998 261.51 32.5998 260.71 33.1998C259.51 34.1998 257.51 33.7999 256.61 32.5998C256.11 31.8998 256.01 31.8998 255.21 32.6998C254.31 33.6998 252.31 33.9999 250.41 33.4999L249.31 33.1998L250.61 32.3999C251.31 31.9999 252.31 31.0999 252.81 30.3999C253.41 29.4999 253.51 29.3999 252.91 29.8999C252.31 30.4999 252.01 30.4998 251.01 29.6998C249.61 28.5998 246.21 28.1999 245.81 29.0998C245.01 30.4998 240.41 32.1998 235.91 32.6998C235.21 32.7998 233.91 32.9998 233.11 33.1998C231.91 33.3998 231.81 33.3998 232.71 33.0998C233.51 32.7999 233.21 32.6998 231.31 32.6998C229.81 32.6998 228.91 32.8998 229.11 33.1998C229.21 33.4998 228.71 33.1998 227.91 32.6998C226.91 31.9998 226.11 31.7999 225.51 31.9999C224.41 32.4999 222.71 31.9999 223.01 31.3999C223.11 31.0999 223.51 30.9998 223.81 31.1998C224.11 31.2998 224.51 31.2999 224.61 30.9999C224.71 30.7999 224.21 30.3999 223.51 30.2999C222.01 29.9999 221.71 28.9999 223.11 28.9999C223.61 28.9999 223.91 29.1999 223.71 29.4999C223.61 29.7999 223.61 29.9999 223.91 29.9999C224.21 29.9999 224.41 29.7999 224.41 29.4999C224.41 29.1999 224.61 28.9999 224.91 28.9999C225.21 28.9999 225.31 29.1999 225.11 29.4999C224.81 30.1999 225.91 30.5999 226.61 29.9999C227.11 29.5999 227.11 29.4998 226.51 29.1998C226.11 28.9998 225.81 28.6999 225.81 28.4999C225.81 27.9999 228.71 26.9999 229.01 27.2999C229.51 27.7999 233.61 27.9999 233.61 27.4999C233.61 27.1999 233.41 27.0998 233.11 27.1998C232.81 27.2998 231.91 27.1999 231.01 26.9999L229.51 26.5998L231.61 26.1998C233.61 25.7998 234.41 25.8999 239.41 26.8999C240.51 27.0999 241.61 27.0999 241.71 26.8999C241.81 26.6999 242.91 26.4999 244.01 26.4999C248.11 26.4999 248.61 26.1999 250.01 22.7999C250.31 22.0999 249.31 22.3999 248.41 23.3999C247.31 24.4999 246.71 24.6999 246.71 23.8999C246.71 23.5999 246.91 23.3999 247.21 23.3999C247.61 23.3999 247.51 23.1999 247.11 22.8999C246.71 22.5999 246.31 22.5998 246.01 23.0998C245.41 23.9998 240.61 24.8999 237.11 24.8999C234.31 24.8999 234.21 24.1998 237.01 23.6998C237.71 23.5998 239.31 23.1998 240.61 22.6998C242.01 22.2998 243.11 22.0999 243.41 22.3999C243.61 22.6999 244.31 22.3999 244.91 21.7999C245.71 20.9999 246.41 20.8998 247.61 21.0998C248.71 21.2999 249.31 21.1999 249.71 20.5998C250.01 20.0998 251.01 19.7999 252.01 19.7999C254.11 19.7999 257.11 18.7999 257.11 18.0998C257.11 17.7999 256.41 17.7999 255.51 17.8999C254.61 18.0999 252.61 18.2999 251.11 18.4999L248.41 18.8999ZM235.71 9.69983C236.11 9.69983 236.51 9.89983 236.51 10.1998C236.51 10.7998 236.51 10.7998 235.61 10.1998C235.11 9.79983 235.11 9.69983 235.71 9.69983ZM227.01 10.8999C227.41 10.7999 228.11 10.7999 228.51 10.8999C228.91 10.9999 228.61 11.0998 227.71 11.0998C227.01 11.0998 226.61 10.9999 227.01 10.8999ZM200.91 4.99987C200.31 4.99987 200.11 4.89982 200.41 4.69982C200.71 4.59982 201.21 4.59982 201.51 4.69982C201.81 4.89982 201.51 4.99987 200.91 4.99987ZM35.4099 46.2999C34.6099 46.2999 34.2101 46.1998 34.6101 46.0998C35.0101 45.9999 35.7101 45.9999 36.1101 46.0998C36.5101 46.1998 36.2099 46.2999 35.4099 46.2999ZM29.9099 64.5998C29.2099 64.5998 28.9099 64.4999 29.4099 64.2999C29.8099 64.1999 30.41 64.1999 30.71 64.2999C31.01 64.4999 30.7099 64.6998 29.9099 64.5998ZM36.21 71.8999C31.11 72.5999 28.01 72.2999 28.01 71.2999C28.01 70.8999 28.71 70.8998 30.01 71.0998C31.11 71.2998 33.61 71.4999 35.51 71.4999L39.01 71.5998L36.21 71.8999ZM37.8101 66.8999C35.8101 66.7999 34.61 66.9999 34.71 67.2999C34.81 67.5999 35.3101 67.7999 35.8101 67.7999C36.2101 67.7999 36.7099 67.9999 36.9099 68.2999C37.2099 68.8999 34.4101 68.8999 32.8101 68.2999C32.2101 68.0999 30.9099 67.8999 29.9099 67.7999C28.9099 67.7999 28.1101 67.4999 28.1101 67.2999C28.1101 67.0999 29.2101 66.8999 30.6101 66.8999C32.0101 66.8999 33.9101 66.6999 34.8101 66.3999C37.2101 65.5999 41.6099 65.5999 41.4099 66.3999C41.2099 66.7999 40.1101 66.9999 37.8101 66.8999ZM42.71 60.5998C39.81 60.4999 37.1101 59.8999 37.1101 59.2999C37.1101 58.7999 44.0101 59.4999 44.8101 60.0998C45.4101 60.4999 44.81 60.5998 42.71 60.5998ZM45.8101 102.9C45.2101 102.9 45.0101 102.8 45.3101 102.6C45.6101 102.5 46.1099 102.5 46.4099 102.6C46.6099 102.8 46.4101 102.9 45.8101 102.9ZM49.21 59.5998C48.61 59.5998 48.41 59.4999 48.71 59.2999C49.01 59.1999 49.5101 59.1999 49.8101 59.2999C50.1101 59.4999 49.81 59.5998 49.21 59.5998ZM56.6101 56.9999C55.3101 56.9999 53.9101 56.7999 53.6101 56.4999C52.8101 55.8999 56.3099 55.8999 57.9099 56.4999C58.7099 56.8999 58.4101 56.9999 56.6101 56.9999ZM56.1101 113.8C56.6101 113.7 57.4101 113.7 57.8101 113.8C58.2101 113.9 57.8101 114 56.8101 114C55.9101 114.1 55.5101 114 56.1101 113.8ZM58.51 115.7C56.41 115.7 54.8099 115.6 54.9099 115.5C55.4099 115 62.21 114.7 62.21 115.2C62.21 115.5 60.81 115.7 58.51 115.7ZM64.01 116.2C63.41 116.2 63.21 116.1 63.51 115.9C63.81 115.8 64.3101 115.8 64.6101 115.9C64.8101 116 64.61 116.2 64.01 116.2ZM70.9099 146.7C70.3099 146.7 70.1099 146.6 70.4099 146.4C70.7099 146.3 71.21 146.3 71.51 146.4C71.71 146.6 71.5099 146.7 70.9099 146.7ZM72.6101 116.3C71.8101 116.9 70.2101 116.8 68.1101 116L66.4099 115.3H68.8101C71.7101 115.2 73.4101 115.7 72.6101 116.3ZM62.9099 195.7C62.4099 195.7 62.3101 195.6 62.6101 195.4C62.9101 195.3 63.3099 195.3 63.4099 195.4C63.6099 195.6 63.3099 195.7 62.9099 195.7ZM76.8101 117.7C76.1101 117.7 75.8101 117.6 76.3101 117.4C76.7101 117.3 77.3101 117.3 77.6101 117.4C77.8101 117.6 77.5101 117.7 76.8101 117.7ZM77.6101 116.6C76.9101 116.6 76.6101 116.5 77.1101 116.3C77.5101 116.2 78.1099 116.2 78.4099 116.3C78.7099 116.5 78.3101 116.7 77.6101 116.6ZM83.51 118.1C81.71 118.1 81.0099 118 81.9099 117.9C82.8099 117.8 84.31 117.8 85.21 117.9C86.01 118 85.31 118.1 83.51 118.1ZM87.21 116.7C86.81 116.7 86.51 116.5 86.51 116.2C86.51 115.9 86.7099 115.7 86.9099 115.7C87.1099 115.7 87.4101 115.9 87.6101 116.2C87.7101 116.5 87.61 116.7 87.21 116.7ZM56.71 221.2C56.01 221.1 52.6101 219.6 52.8101 219.4C53.1101 219.1 57.1101 220.4 57.1101 220.8C57.0101 221.1 56.91 221.2 56.71 221.2ZM67.21 223.7C66.21 223.7 65.2101 223.6 64.8101 223.5C64.4101 223.4 63.2101 223.2 62.1101 223C61.0101 222.8 60.11 222.5 60.21 222.3C60.41 221.9 65.4101 222.5 67.6101 223.3C68.9101 223.7 68.91 223.7 67.21 223.7ZM97.71 19.4999C98.01 19.3999 98.5101 19.3999 98.8101 19.4999C99.1101 19.5999 98.9101 19.7999 98.3101 19.7999C97.7101 19.7999 97.41 19.6999 97.71 19.4999ZM103.31 234.4C102.91 234.5 102.61 234.8 102.81 235.1C103.11 235.6 101.81 235.6 93.71 235.1C88.61 234.8 83.31 233.8 77.01 232C73.01 230.9 73.6101 230.8 80.3101 231.8C83.2101 232.2 85.81 232.5 86.21 232.6C86.81 232.6 86.81 232.7 86.21 233.1C85.31 233.7 87.1101 234.2 89.6101 234.1C92.6101 233.7 104.21 234.1 103.31 234.4ZM112.01 236.1C111.31 236.6 109.51 236.7 109.51 236.2C109.51 236 108.11 235.8 106.41 235.9C103.51 236 103.41 235.9 104.11 235.1C104.61 234.5 104.91 234.4 105.01 234.9C105.11 235.3 105.51 235.4 106.31 235C107.81 234.3 109.91 234.4 109.91 235.1C109.91 235.4 110.31 235.5 110.81 235.3C111.91 234.9 112.81 235.5 112.01 236.1ZM106.51 19.7999C102.11 19.7999 99.6101 19.5999 100.11 19.2999C101.41 18.6999 114.31 18.6999 114.01 19.2999C113.91 19.6999 110.91 19.8999 106.51 19.7999ZM116.01 236.5C115.41 236.5 115.21 236.4 115.51 236.2C115.81 236.1 116.31 236.1 116.61 236.2C116.81 236.4 116.61 236.5 116.01 236.5ZM119.01 236.4C118.21 236.4 117.81 236.3 118.21 236.2C118.61 236.1 119.31 236.1 119.71 236.2C120.21 236.3 119.91 236.4 119.01 236.4ZM128.11 236.5C127.51 236.5 127.31 236.4 127.61 236.2C127.91 236.1 128.41 236.1 128.71 236.2C129.01 236.4 128.71 236.5 128.11 236.5ZM236.01 230.9C236.41 230.6 236.91 230.4 237.31 230.4C237.91 230.4 237.91 230.5 237.31 230.9C236.91 231.2 236.41 231.4 236.01 231.4C235.51 231.4 235.51 231.4 236.01 230.9ZM230.01 232.5C230.41 232.2 231.21 232 232.01 232C233.31 232 233.31 232.1 232.21 232.5C231.61 232.7 230.71 232.9 230.21 233C229.51 233 229.41 232.9 230.01 232.5ZM257.71 189.6C257.31 189.9 256.71 190.1 256.21 190.1C255.11 190.1 255.41 189.8 257.01 189.4C258.01 189.2 258.21 189.2 257.71 189.6ZM255.21 188.9C255.31 188.7 256.11 188.3 256.91 188.1C257.71 187.8 258.21 187.8 257.91 188.1C257.41 188.6 254.81 189.5 255.21 188.9ZM259.81 196.5C259.91 196.6 259.01 197.1 257.81 197.6C256.61 198.1 255.71 198.6 255.81 198.8C255.91 199 257.21 198.5 258.61 197.9C260.11 197.3 261.41 196.9 261.51 197.1C261.91 197.6 261.31 197.9 257.01 199.4C252.31 201 249.91 201.6 249.91 201.2C249.91 200.4 259.41 196 259.81 196.5ZM251.61 190.2C252.81 190.2 251.81 191.2 250.11 191.7C247.81 192.4 245.11 192.4 245.11 191.8C245.11 191.4 250.11 190.2 251.61 190.2ZM260.11 165.7C260.51 165.7 260.81 165.8 260.81 165.9C260.81 166 260.51 166.2 260.11 166.4C259.71 166.6 259.41 166.5 259.41 166.2C259.41 165.9 259.71 165.7 260.11 165.7ZM257.61 166.4C257.91 166.3 258.31 166.3 258.41 166.4C258.51 166.6 258.31 166.7 257.81 166.7C257.41 166.6 257.31 166.5 257.61 166.4ZM255.51 166.9C255.81 166.8 256.21 166.8 256.31 166.9C256.41 167.1 256.21 167.2 255.71 167.2C255.21 167.2 255.11 167 255.51 166.9ZM265.71 145.5C266.61 144.7 267.11 144.8 266.61 145.7C266.41 146 266.01 146.2 265.61 146.2C265.01 146.3 265.01 146.2 265.71 145.5ZM259.71 148.1C261.11 147.3 263.71 147 262.51 147.8C262.11 148 261.11 148.4 260.11 148.5L258.41 148.8L259.71 148.1ZM254.91 146.8C255.01 146.5 255.41 146.3 255.81 146.3C256.21 146.3 256.41 146.5 256.41 146.8C256.41 147.1 256.01 147.3 255.51 147.3C255.01 147.3 254.81 147.1 254.91 146.8ZM253.51 149C253.91 148.9 254.61 148.9 255.01 149C255.41 149.1 255.11 149.2 254.21 149.2C253.41 149.3 253.11 149.1 253.51 149ZM269.51 130.3C271.91 130 272.31 130.8 269.91 131.3C269.01 131.5 267.81 131.7 267.31 131.8C266.81 131.9 266.31 131.8 266.31 131.5C266.41 130.9 266.91 130.7 269.51 130.3ZM268.51 68.1998C268.81 67.8998 269.21 67.7999 269.51 67.8999C269.81 67.9999 269.61 68.2999 269.01 68.3999C268.31 68.6999 268.11 68.5998 268.51 68.1998ZM265.01 57.2999C265.31 57.1999 265.81 57.1999 266.11 57.2999C266.41 57.3999 266.21 57.5998 265.61 57.5998C265.01 57.5998 264.71 57.3999 265.01 57.2999ZM265.51 59.0998C266.01 59.0998 266.41 59.2999 266.41 59.5998C266.41 59.8998 266.11 60.0998 265.81 60.0998C265.51 60.0998 265.11 59.8998 264.91 59.5998C264.71 59.3998 265.01 59.0998 265.51 59.0998ZM254.51 35.6998C255.71 35.0998 257.01 35.0998 256.71 35.6998C256.61 35.9998 255.81 36.1998 255.01 36.1998C253.81 36.0998 253.71 36.0998 254.51 35.6998ZM241.41 206.6C238.41 207.8 237.51 207.7 239.91 206.4C241.01 205.8 242.21 205.5 242.71 205.6C243.31 205.7 242.91 206 241.41 206.6ZM245.61 175.4C244.81 176 244.21 176 244.51 175.4C244.61 175.1 245.11 174.9 245.51 174.9C246.11 174.9 246.11 174.9 245.61 175.4ZM246.61 149.8C246.11 149.8 246.01 149.7 246.31 149.5C246.61 149.4 247.01 149.4 247.11 149.5C247.31 149.7 247.11 149.9 246.61 149.8ZM248.51 149C248.81 148.9 249.31 148.9 249.61 149C249.91 149.1 249.71 149.3 249.11 149.3C248.51 149.3 248.21 149.2 248.51 149ZM249.21 168.7C248.71 168.7 248.61 168.6 248.91 168.4C249.21 168.3 249.61 168.3 249.71 168.4C249.91 168.6 249.71 168.7 249.21 168.7ZM251.11 148.5C251.41 148.4 251.81 148.4 251.91 148.5C252.01 148.7 251.81 148.8 251.31 148.8C250.91 148.8 250.81 148.7 251.11 148.5ZM257.71 137.6C257.11 137.6 256.91 137.5 257.21 137.3C257.51 137.2 258.01 137.2 258.31 137.3C258.61 137.4 258.31 137.6 257.71 137.6ZM259.21 133.6C258.71 133.8 258.01 134 257.71 134C257.31 134 257.41 133.8 257.91 133.6C258.41 133.4 259.11 133.2 259.41 133.2C259.91 133.1 259.81 133.3 259.21 133.6ZM261.91 135.3C262.31 135.4 262.01 135.5 261.11 135.5C260.31 135.5 259.91 135.4 260.31 135.3C260.81 135.1 261.51 135.1 261.91 135.3ZM267.71 73.3999C267.71 73.6999 267.11 73.8999 266.41 73.8999C265.71 73.8999 265.11 73.6999 265.11 73.3999C265.11 73.0999 265.71 72.8999 266.41 72.8999C267.11 72.8999 267.71 73.0999 267.71 73.3999ZM266.31 67.9999C266.61 67.8999 267.11 67.8999 267.41 67.9999C267.71 68.0999 267.51 68.2999 266.91 68.2999C266.31 68.2999 266.01 68.0999 266.31 67.9999ZM256.41 69.1998C257.61 68.5998 264.01 68.2999 265.31 68.7999C266.51 69.1999 266.61 69.2999 265.51 69.2999C264.91 69.2999 263.31 69.4998 262.01 69.6998C259.51 70.0998 255.31 69.6998 256.41 69.1998ZM256.61 92.7999C257.31 92.5999 258.41 92.3999 259.01 92.3999C259.91 92.3999 259.91 92.4999 259.41 92.7999C259.01 93.0999 258.01 93.2998 257.01 93.1998C255.41 93.1998 255.41 93.1999 256.61 92.7999ZM255.81 118.9C257.11 118.3 260.11 117.8 259.71 118.3C259.51 118.5 258.31 118.9 257.11 119C255.71 119.2 255.21 119.1 255.81 118.9ZM256.41 134.1C256.81 134.1 256.71 134.3 256.21 134.5C255.71 134.7 255.01 134.9 254.71 134.9C254.31 134.9 254.41 134.7 254.91 134.5C255.41 134.3 256.11 134.1 256.41 134.1ZM254.21 93.2999C254.81 93.2999 254.81 93.3999 254.31 93.7999C253.51 94.3999 252.91 94.3999 253.21 93.7999C253.31 93.4999 253.81 93.2999 254.21 93.2999ZM254.71 45.3999C254.91 45.3999 255.11 45.5999 255.11 45.8999C255.11 46.1999 254.91 46.3999 254.71 46.3999C254.51 46.3999 254.31 46.1999 254.31 45.8999C254.31 45.5999 254.41 45.3999 254.71 45.3999ZM252.61 48.0998C253.01 47.9999 253.61 47.9999 253.91 48.0998C254.21 48.1998 253.81 48.2999 253.11 48.2999C252.41 48.2999 252.21 48.1998 252.61 48.0998ZM252.41 136.3C252.51 136.5 252.31 136.6 251.81 136.6C251.31 136.6 251.21 136.5 251.51 136.3C251.91 136.1 252.31 136.1 252.41 136.3ZM250.81 39.3999C252.61 39.5999 252.71 39.5998 251.61 40.1998C251.01 40.4998 249.01 40.8998 247.31 41.0998C244.21 41.3998 244.11 41.3998 245.31 40.5998C246.01 40.1998 246.71 39.7999 247.01 39.8999C247.31 39.9999 247.91 39.7999 248.21 39.5998C248.61 39.3998 249.81 39.2999 250.81 39.3999ZM247.91 38.4999C248.41 38.0999 248.91 37.8998 249.21 38.0998C249.51 38.2999 249.31 38.5999 248.81 38.7999C247.41 39.3999 247.01 39.2999 247.91 38.4999ZM242.51 33.7999C243.11 33.6999 243.41 33.2999 243.31 32.8999C243.11 32.1999 244.71 31.0998 246.01 31.0998C246.41 31.0998 247.11 30.7999 247.61 30.3999C248.71 29.3999 250.01 29.3999 251.01 30.2999C251.81 30.9999 251.71 31.0998 249.71 32.5998C247.81 33.9999 247.21 34.1998 244.51 34.0998C242.81 33.9999 241.91 33.8999 242.51 33.7999ZM239.41 179.6C239.71 179.5 240.21 179.5 240.51 179.6C240.81 179.7 240.61 179.9 240.01 179.9C239.31 179.9 239.11 179.8 239.41 179.6ZM236.81 33.7999C237.31 33.6999 238.11 33.6999 238.51 33.7999C238.91 33.8999 238.51 33.9999 237.51 33.9999C236.51 33.9999 236.31 33.8999 236.81 33.7999ZM207.21 8.19982C208.61 7.99983 210.11 7.99992 210.51 8.29992C210.91 8.49992 209.81 8.69982 207.91 8.69982L204.61 8.59985L207.21 8.19982ZM212.91 12.9999C216.11 13.3999 217.31 14.2999 214.71 14.2999C213.91 14.2999 211.71 14.4998 209.81 14.6998C207.91 14.8998 206.01 14.8998 205.71 14.6998C205.41 14.4998 204.71 14.1999 204.31 13.9999C202.71 13.2999 209.31 12.5999 212.91 12.9999ZM211.81 22.3999C210.01 22.3999 208.21 22.4998 207.71 22.6998C207.21 22.8998 206.71 22.7999 206.51 22.5998C206.31 22.3998 205.01 22.1999 203.51 22.0998C202.01 21.9998 200.01 21.8999 199.01 21.8999C197.31 21.7999 197.31 21.7999 198.61 21.3999C199.31 21.1999 202.51 21.0998 205.81 21.1998C209.51 21.2998 211.21 21.1999 210.61 20.8999C209.81 20.5999 210.11 20.4999 212.11 20.3999C213.51 20.3999 214.41 20.4998 214.11 20.6998C213.71 20.8998 213.71 21.0998 214.31 21.6998C214.91 22.2998 214.61 22.3999 211.81 22.3999ZM204.21 24.7999C203.01 24.7999 202.61 24.6999 203.21 24.5998C203.91 24.4998 204.81 24.4998 205.41 24.5998C205.91 24.6999 205.41 24.7999 204.21 24.7999ZM198.31 27.5998C199.11 27.5998 200.41 27.7999 201.11 27.9999C202.31 28.3999 202.31 28.3999 200.71 28.3999C199.71 28.3999 198.51 28.1999 197.91 27.9999C196.91 27.6999 197.01 27.5998 198.31 27.5998ZM198.01 25.9999C198.91 25.9999 199.71 26.1999 199.91 26.4999C200.21 27.0999 198.51 27.0999 197.31 26.4999C196.61 26.1999 196.71 26.0999 198.01 25.9999ZM211.21 18.4999C211.71 18.3999 212.61 18.3999 213.21 18.4999C213.81 18.5999 213.31 18.6998 212.21 18.6998C211.11 18.6998 210.71 18.5999 211.21 18.4999ZM207.51 18.5998C206.81 18.7999 205.91 19.0999 205.41 19.2999C204.91 19.4999 204.41 19.5999 204.31 19.4999C204.11 19.2999 200.21 18.8999 197.61 18.7999C196.71 18.7999 196.31 18.4999 196.31 17.9999C196.31 17.5999 196.51 17.1998 196.71 17.1998C196.91 17.1998 197.11 17.3998 197.11 17.5998C197.11 17.7999 197.91 17.8999 198.91 17.8999C206.81 17.3999 211.01 17.7999 207.51 18.5998ZM193.11 14.3999C196.91 13.9999 199.51 13.8998 199.71 14.1998C199.91 14.4998 198.61 14.7999 196.31 14.9999C194.21 15.1999 191.91 15.3999 191.21 15.4999C190.51 15.5999 189.21 15.4999 188.41 15.2999C187.31 15.0999 188.51 14.7999 193.11 14.3999ZM190.71 17.5998C193.41 17.2999 194.11 17.3999 193.91 17.8999C193.81 18.3999 192.61 18.5998 189.81 18.6998C185.31 18.7998 185.81 18.0998 190.71 17.5998ZM178.71 16.2999C184.31 16.2999 186.21 16.4999 185.61 16.8999C185.21 17.1999 183.01 17.5999 180.81 17.8999C178.61 18.0999 176.51 18.2999 176.21 18.2999C174.41 18.1999 171.01 17.1999 171.01 16.7999C171.01 16.4999 174.51 16.2999 178.71 16.2999ZM137.11 196.4C137.41 196.3 137.81 196.3 137.91 196.4C138.01 196.6 137.81 196.7 137.31 196.7C136.91 196.7 136.81 196.6 137.11 196.4ZM134.91 196.4C135.21 196.3 135.71 196.3 136.01 196.4C136.31 196.5 136.11 196.7 135.51 196.7C134.91 196.7 134.61 196.6 134.91 196.4ZM132.81 196.4C133.11 196.3 133.61 196.3 133.91 196.4C134.21 196.5 134.01 196.7 133.41 196.7C132.71 196.7 132.51 196.6 132.81 196.4ZM139.01 238.7C135.81 238.6 133.01 238.4 132.81 238.2C132.61 238 133.71 237.8 135.21 237.9C136.71 237.9 140.81 238 144.31 238C147.81 238 150.71 238.3 150.71 238.5C150.71 238.9 148.11 238.9 139.01 238.7ZM135.41 236.2C135.71 236.1 136.21 236.1 136.51 236.2C136.81 236.3 136.61 236.5 136.01 236.5C135.31 236.5 135.11 236.4 135.41 236.2ZM157.21 238.4C155.71 238.8 152.31 238.9 151.91 238.5C151.61 238.3 152.91 238.1 154.61 238.2C156.31 238.2 157.51 238.3 157.21 238.4ZM159.31 236C158.71 236 158.51 235.9 158.81 235.7C159.11 235.6 159.61 235.6 159.91 235.7C160.21 235.8 159.91 236 159.31 236ZM158.21 235.2C156.81 235.5 155.51 235.9 155.41 236.1C155.31 236.3 152.11 236.3 148.21 236.1C144.41 235.9 141.21 235.9 141.11 236.1C141.01 236.3 140.21 236.5 139.41 236.5C138.01 236.5 137.91 236.4 138.91 236C139.61 235.7 138.91 235.6 136.41 235.5C134.51 235.5 132.81 235.7 132.71 235.9C132.61 236.2 132.31 236.2 131.91 235.9C131.51 235.6 130.91 235.5 130.51 235.7C130.11 235.8 129.71 235.8 129.51 235.5C129.01 234.6 131.21 234.4 139.41 234.7C144.61 234.9 149.71 234.8 153.31 234.4C159.61 233.8 163.01 234.3 158.21 235.2ZM163.91 236C163.41 236 162.61 235.8 162.21 235.6C161.31 235.2 161.31 235.2 162.21 235.2C162.71 235.2 163.51 235.4 163.91 235.6C164.71 236 164.71 236 163.91 236ZM165.01 18.7999C164.41 18.7999 164.21 18.6999 164.51 18.4999C164.81 18.3999 165.31 18.3999 165.61 18.4999C165.81 18.6999 165.61 18.7999 165.01 18.7999ZM166.51 18.3999C166.31 18.0999 166.71 17.8999 167.41 17.8999C168.31 17.8999 168.51 17.9999 168.01 18.3999C167.21 18.9999 166.81 18.9999 166.51 18.3999ZM169.71 237.9C167.21 237.9 166.21 237.8 167.41 237.7C168.71 237.6 170.71 237.6 172.01 237.7C173.31 237.8 172.21 237.9 169.71 237.9ZM183.81 237C183.31 237 183.21 236.9 183.51 236.7C183.81 236.6 184.21 236.6 184.31 236.7C184.51 236.9 184.21 237 183.81 237ZM185.51 227.8C185.01 227.8 184.91 227.7 185.21 227.5C185.51 227.4 185.91 227.4 186.01 227.5C186.21 227.7 186.01 227.9 185.51 227.8ZM186.01 20.5998C185.51 20.6999 184.41 20.5999 183.41 20.3999C182.41 20.1999 180.21 19.8999 178.41 19.8999C170.91 19.6999 170.01 19.0998 177.11 19.0998C181.51 19.0998 183.81 19.1999 183.21 19.4999C182.51 19.7999 183.11 19.7999 184.81 19.5998C186.41 19.3998 187.81 19.4999 188.31 19.8999C189.01 20.3999 189.01 20.3999 188.01 20.4999C187.31 20.3999 186.51 20.4998 186.01 20.5998ZM203.91 226.8C202.21 226.8 199.91 226.9 198.81 227C195.71 227.5 187.11 227.8 187.31 227.3C187.81 226.3 207.01 225.3 207.01 226.3C207.01 226.7 205.81 226.9 203.91 226.8ZM208.51 226.4C208.41 226.7 208.21 226.9 208.11 226.9C208.01 226.9 207.81 226.7 207.71 226.4C207.61 226.1 207.71 225.9 208.11 225.9C208.51 225.9 208.71 226.1 208.51 226.4ZM205.31 223.7C205.31 223.5 206.71 223.3 208.41 223.3C210.11 223.3 211.41 223.4 211.21 223.6C210.81 224.1 205.31 224.2 205.31 223.7ZM212.21 217.6C212.21 217.9 211.41 218.1 210.51 218.3C208.61 218.5 208.21 218 209.71 217.5C211.11 217 212.21 217.1 212.21 217.6ZM211.51 27.2999C211.51 27.0999 211.21 26.5999 210.81 26.3999C210.41 26.0999 211.21 25.9998 212.81 26.1998C214.21 26.3998 216.31 26.5998 217.41 26.6998C218.51 26.7998 219.71 27.0999 220.21 27.2999C221.01 27.6999 220.91 27.7999 219.81 28.0998C217.91 28.5998 212.61 28.5998 212.81 28.0998C212.91 27.8998 212.71 27.6998 212.31 27.6998C211.91 27.7998 211.51 27.5999 211.51 27.2999ZM219.81 31.5998C221.11 31.5998 222.21 31.7999 222.21 31.9999C222.21 32.1999 221.11 32.3999 219.81 32.4999C218.51 32.5999 217.41 32.3998 217.41 32.0998C217.41 31.7999 218.51 31.5998 219.81 31.5998ZM219.51 30.1998C219.81 30.0998 220.31 30.0998 220.61 30.1998C220.91 30.2998 220.71 30.4999 220.11 30.4999C219.51 30.4999 219.21 30.3998 219.51 30.1998ZM220.41 23.8999C219.81 23.8999 219.61 23.7999 219.91 23.5998C220.21 23.4998 220.71 23.4998 221.01 23.5998C221.31 23.7999 221.01 23.8999 220.41 23.8999ZM213.31 225.8C212.81 225.8 212.71 225.7 213.01 225.5C213.31 225.4 213.71 225.4 213.81 225.5C214.01 225.7 213.71 225.8 213.31 225.8ZM220.91 219.1C219.81 219.1 219.41 219 219.91 218.9C220.41 218.8 221.31 218.8 221.91 218.9C222.41 219 221.91 219.1 220.91 219.1ZM227.61 232.5C227.51 232.8 226.11 233 224.61 232.9C222.51 232.9 222.21 232.8 223.21 232.5C225.21 231.9 227.91 231.9 227.61 232.5ZM224.51 216.9C225.31 216.2 225.31 216.2 224.51 216.1C223.81 216.1 223.81 216 224.31 215.6C225.31 214.9 224.41 215 222.81 215.8C221.41 216.5 219.61 217 216.91 217.4C216.11 217.5 214.71 217.7 214.01 217.9C212.91 218.1 212.61 218 212.61 217.5C212.61 217 213.31 216.6 214.61 216.4C215.71 216.2 217.41 215.6 218.41 215.1C220.11 214.2 223.21 213.5 228.01 212.8C229.41 212.6 229.51 212.7 228.81 213.1C227.41 213.8 227.61 214.7 229.21 214.7C231.01 214.7 230.41 215.3 227.31 216.7C224.31 217.9 223.31 218 224.51 216.9ZM229.81 216.7C229.41 216.7 229.11 216.6 229.11 216.5C229.11 216.4 229.41 216.2 229.81 216C230.21 215.8 230.51 215.9 230.51 216.2C230.51 216.5 230.11 216.7 229.81 216.7ZM237.01 221.2C232.91 221.8 231.71 221.9 231.71 221.6C231.71 221.5 233.11 221.1 234.81 220.8C236.51 220.5 238.61 220.1 239.41 220C240.21 219.9 240.81 219.9 240.81 220.2C240.81 220.5 239.11 220.8 237.01 221.2ZM231.91 218.2C232.01 217.9 232.41 217.7 232.61 217.7C232.81 217.7 233.01 217.9 233.01 218.2C233.01 218.5 232.71 218.7 232.31 218.7C232.01 218.7 231.81 218.5 231.91 218.2ZM234.11 217.8C234.51 217.3 240.81 215.6 240.81 216C240.81 216.1 240.21 216.5 239.61 216.9C238.11 217.8 233.51 218.6 234.11 217.8ZM243.01 209.1C246.61 208.4 248.21 208.4 247.31 209C246.81 209.4 247.21 209.5 248.61 209.5C250.41 209.5 250.51 209.6 249.71 210.3C249.21 210.7 247.61 211.5 246.01 212.1C244.41 212.7 242.81 213.2 242.41 213.4C241.81 213.6 241.61 213.4 241.61 212.4C241.61 211.5 241.31 211.1 240.51 210.8C238.91 210.3 239.71 209.7 243.01 209.1ZM232.61 214.1C234.61 212.9 234.91 211.9 233.11 212.3L231.91 212.6L233.11 211.8C233.81 211.3 234.71 211.1 235.11 211.3C235.51 211.5 236.01 211.4 236.21 211.1C236.71 210.1 238.81 210.5 239.91 211.8C240.51 212.5 240.81 213.2 240.71 213.3C240.61 213.5 239.21 213.6 237.71 213.7C236.21 213.8 234.31 214.2 233.51 214.7C232.21 215.5 230.81 215.8 230.81 215.3C230.81 215.3 231.61 214.7 232.61 214.1ZM228.21 37.3999C228.51 37.2999 228.91 37.2999 229.01 37.3999C229.11 37.5999 228.91 37.6998 228.41 37.6998C227.91 37.6998 227.81 37.4999 228.21 37.3999ZM225.61 119.8C226.21 119.5 228.41 119.2 230.61 119C233.41 118.8 234.11 118.9 233.01 119.2C232.21 119.5 229.91 119.8 228.01 120C225.41 120.2 224.81 120.2 225.61 119.8ZM223.01 120.5C223.31 120.4 223.71 120.4 223.81 120.5C223.91 120.7 223.71 120.8 223.21 120.8C222.71 120.8 222.61 120.6 223.01 120.5ZM225.91 207.7C227.11 207.6 229.31 207.4 230.91 207.3C233.41 207.1 233.11 207.2 228.71 208.3C222.91 209.7 223.01 209.7 222.21 209.1C221.41 208.5 222.91 207.9 225.91 207.7ZM230.81 24.6998C229.61 25.4998 224.91 25.6999 224.51 24.8999C224.41 24.5999 223.61 24.1999 222.81 23.8999C221.71 23.4999 222.11 23.3999 225.31 23.2999C231.31 23.2999 232.61 23.5998 230.81 24.6998ZM241.91 20.6998C240.71 21.0998 238.51 21.8999 237.01 22.4999C234.01 23.5999 233.61 23.5999 232.11 22.8999C231.51 22.5999 227.61 22.3999 223.31 22.3999C217.71 22.3999 215.61 22.2999 215.61 21.8999C215.61 21.4999 216.51 21.3998 218.91 21.6998C221.51 21.9998 222.21 21.8999 222.01 21.3999C221.91 20.9999 221.21 20.7999 220.31 20.8999C218.31 21.0999 215.11 20.4999 215.11 19.8999C215.11 19.2999 218.81 19.2999 221.81 19.7999C223.71 20.0999 223.81 20.1999 223.11 20.8999C222.31 21.5999 222.31 21.5999 223.41 21.2999C224.01 21.0999 226.41 20.8999 228.81 20.7999C231.21 20.7999 235.61 20.5999 238.61 20.3999C244.01 19.8999 244.01 19.8998 241.91 20.6998Z" fill="#F4D734"/>
</svg>
